<svg width="56" height="56" viewBox="0 0 56 56" fill="none" xmlns="http://www.w3.org/2000/svg">
<rect width="56" height="56" rx="8" fill="#303030"/>
<path d="M26.9708 5.4811C30.6627 5.41155 34.5705 5.75295 38.1328 6.74072C38.411 6.81788 39.0017 6.91638 39.2007 7.06988C39.3782 7.26047 39.4343 7.65138 39.5191 7.88391C40.205 9.76592 40.4995 11.6305 40.6388 13.6299C41.1207 13.6488 41.6456 13.6364 42.131 13.6336C42.0948 11.3376 42.1278 8.98307 42.118 6.67952L43.2039 6.674L43.2025 13.6369C44.3225 13.6213 45.0678 13.5869 45.8423 14.5182C46.1426 14.5197 46.8502 14.4243 47.0353 14.6578C47.1091 14.9376 47.0876 15.633 47.0874 15.9513L47.0892 17.6288L47.0925 20.4754C47.0929 20.8343 47.1305 22.1149 47.0316 22.3682C46.7902 22.5707 46.0936 22.5036 45.7326 22.5049C45.0755 23.6491 44.409 23.7166 43.2059 23.706L43.215 24.0745C43.3487 24.2818 44.0299 25.4162 44.0298 25.5839C44.0284 28.0048 44.0687 30.4901 44.0264 32.9084C43.4238 32.9232 42.7569 32.9089 42.1495 32.9067C42.1378 32.3716 42.1552 31.7666 42.1579 31.2267L42.1631 28.1486C42.1618 26.1781 42.1192 24.1331 42.1613 22.1725L41.5594 22.1638C41.5212 25.7406 41.5137 29.3177 41.5369 32.8947L35.9797 32.8974L35.9827 27.0999C35.9817 26.5398 35.9148 26.133 35.5208 25.7441C34.8195 25.0519 33.8635 25.4217 33.0048 25.3032C32.8161 25.2405 32.6163 25.1042 32.4456 25.0143C31.5923 24.565 30.7686 23.9501 29.8396 23.678C29.6253 23.6152 29.3446 23.6231 29.128 23.6238C28.2435 23.6227 27.3505 23.6049 26.4528 23.6399C25.5229 23.6762 24.596 24.4851 23.7705 24.8854C23.5518 24.9915 23.1999 25.2678 22.9718 25.2979C22.1133 25.4048 21.1518 25.0885 20.4735 25.8116C19.9023 26.4204 20.07 27.7659 20.0691 28.5864L20.0742 32.9219L14.4417 32.9486C14.4724 29.3957 14.4717 25.8427 14.4396 22.2898L13.9161 22.2894C13.9137 25.8206 13.8461 29.4246 13.9131 32.9479C13.258 32.9443 12.603 32.9448 11.9479 32.9493L11.9435 27.5237C11.9425 26.947 11.9098 26.0266 11.9632 25.4739C11.9784 25.3161 12.6434 24.3939 12.7925 24.1455L12.7962 23.756C11.5049 23.757 10.8502 23.656 10.1201 22.4802C9.95345 22.4726 9.76139 22.481 9.59432 22.4832C9.01507 22.4911 8.91275 22.4366 8.90285 21.8696C8.87906 20.5115 8.89328 19.1558 8.89356 17.7986L8.89224 15.9506C8.89213 15.726 8.8462 14.7515 8.99128 14.6119C9.15978 14.4499 9.75663 14.4913 10.0273 14.4904C11.1532 13.6263 11.4197 13.6194 12.8044 13.6214L12.8015 6.63036C13.1805 6.62867 13.5595 6.62976 13.9386 6.63364L13.9287 13.6263C14.3994 13.6233 14.87 13.6253 15.3407 13.6324C15.3678 13.4655 15.3859 13.2842 15.3927 13.115C15.4809 10.9276 16.1152 9.00927 16.8935 6.99321C17.4185 6.79683 18.6643 6.51185 19.2316 6.3922C21.7768 5.8451 24.3681 5.54006 26.9708 5.4811Z" fill="white"/>
<path d="M15.5047 13.1032L27.4467 13.1021L27.4425 19.0044C27.441 20.1302 27.4153 21.3015 27.4406 22.4217L27.0634 22.4243L15.1768 22.4281C15.2484 21.5559 15.2554 20.6957 15.2902 19.8226L15.5047 13.1032Z" fill="#303030"/>
<path d="M28.6565 13.1075C29.9455 13.0757 31.3684 13.11 32.6679 13.1101L40.4406 13.0993L40.6735 19.3085L40.7676 21.353C40.778 21.6083 40.812 22.1777 40.7862 22.4177C39.3002 22.4435 37.7601 22.4215 36.2687 22.4202L28.6486 22.4283C28.6584 19.3277 28.6161 16.207 28.6565 13.1075Z" fill="#303030"/>
<path d="M18.0394 8.15481C18.7473 8.12818 19.6045 8.14869 20.3266 8.14809L24.7496 8.14716L37.9606 8.14924C38.0096 8.30307 38.0773 8.47211 38.1352 8.62354C38.5275 9.65013 38.9353 10.6693 39.3571 11.6839C38.9121 11.6994 38.4669 11.706 38.0217 11.7037L16.6729 11.704C17.0036 10.9421 17.287 10.0885 17.5924 9.30949C17.7226 8.9777 17.88 8.45789 18.0394 8.15481Z" fill="#303030"/>
<path d="M11.6722 14.2503C12.0543 14.2357 12.4186 14.2401 12.801 14.2442L12.7973 23.1422C12.3025 23.1347 11.9374 23.1656 11.4796 22.9689C11.2082 22.8224 11.0509 22.7046 10.8608 22.4625C11.2277 22.4669 11.7625 22.6028 11.7561 22.0832C11.7516 21.7182 11.7506 21.3519 11.746 20.9866C11.7361 20.2911 11.7318 19.5955 11.7333 18.9L11.7384 16.301C11.7388 15.8277 11.7429 15.3569 11.7295 14.8838C11.7177 14.471 11.3361 14.5403 11.0273 14.5441C11.2736 14.3889 11.3917 14.3262 11.6722 14.2503Z" fill="#303030"/>
<path d="M43.1986 14.2206C43.8931 14.2074 44.357 14.1297 44.9507 14.5198C44.2821 14.5469 44.1441 14.592 44.1438 15.2814C44.143 16.7152 44.1374 18.1495 44.1315 19.5832L44.1276 21.2123C44.1277 21.5237 44.1209 21.86 44.1475 22.1692C44.177 22.5119 44.7434 22.4736 44.9873 22.4783C45.0236 22.482 45.0026 22.4767 45.0468 22.5043C45.0228 22.5656 44.9997 22.5817 44.9513 22.6254C44.31 23.2039 43.979 23.1393 43.1948 23.1154C43.2465 20.1924 43.1929 17.1543 43.1986 14.2206Z" fill="#303030"/>
<path d="M40.7715 14.2309C41.2175 14.2248 41.6636 14.2264 42.1096 14.2359C42.1352 16.6926 42.1462 19.1494 42.1427 21.6062L41.6003 21.5763C41.5256 20.973 41.4832 20.3435 41.4158 19.7352L40.7715 14.2309Z" fill="#303030"/>
<path d="M13.9457 14.2587C14.3596 14.2368 14.8204 14.2471 15.2385 14.2484C15.2109 14.8823 15.0596 15.8858 14.9858 16.5478L14.5272 20.9122C14.5086 21.139 14.4704 21.4021 14.443 21.6309L13.9224 21.6285C13.9047 20.8839 13.8628 14.4842 13.9457 14.2587Z" fill="#303030"/>
<path d="M30.0454 39.662L45.6186 39.6509C45.6452 41.2214 45.6341 42.8395 45.634 44.4122C45.4444 44.6694 45.1147 45.0007 44.8913 45.2526C44.6269 45.5506 44.3509 45.8862 44.0797 46.1688C43.5856 46.2137 42.5881 46.1872 42.0633 46.1866L38.3567 46.183L26.1202 46.1672L12.0716 46.1857C11.7006 45.7769 10.6592 44.7462 10.419 44.3591C10.383 42.8697 10.4013 41.2275 10.4141 39.7342L30.0454 39.662Z" fill="white"/>
<path d="M34.5681 40.8381C35.0148 40.8367 35.4615 40.832 35.9082 40.824C35.8997 42.3193 35.9015 43.8146 35.9137 45.3099L21.6699 45.3085L20.3681 45.3074C20.3205 43.8607 20.3423 42.3026 20.3429 40.8527L34.5681 40.8381Z" fill="#303030"/>
<path d="M36.1079 40.5486C38.8714 40.5358 41.6349 40.5439 44.3983 40.5729C44.4026 40.949 44.4172 41.4136 44.3954 41.7826C41.6367 41.7564 38.8778 41.754 36.119 41.7754C36.1079 41.3737 36.111 40.952 36.1079 40.5486Z" fill="#303030"/>
<path d="M36.1584 44.0366C38.7216 44.0178 41.2848 44.0221 43.848 44.0496C43.8515 44.2537 43.8998 45.2032 43.8027 45.3065L36.103 45.309C36.0991 45.0789 36.0758 44.2415 36.1109 44.061L36.1584 44.0366Z" fill="#303030"/>
<path d="M19.5849 44.0648L19.8921 44.0605C19.8986 44.4855 19.8993 44.9104 19.8941 45.3354L12.7284 45.3421L12.3979 45.3378L12.4063 44.0732L19.5849 44.0648Z" fill="#303030"/>
<path d="M11.6899 40.6033L19.9028 40.6034L19.8938 41.7579L11.6883 41.7708C11.6808 41.3893 11.6885 40.9864 11.6899 40.6033Z" fill="#303030"/>
<path d="M36.1074 43.1267C38.8315 43.0902 41.6746 43.1297 44.4048 43.1415C44.4067 43.3183 44.4149 43.5117 44.3951 43.6863C41.6338 43.7033 38.8724 43.6989 36.1112 43.6732L36.1074 43.1267Z" fill="#303030"/>
<path d="M36.1021 42.1687L44.3972 42.1707L44.3943 42.7002L36.1036 42.6879L36.1021 42.1687Z" fill="#303030"/>
<path d="M11.68 43.1208L19.9045 43.1212L19.9001 43.5802C18.9729 43.6084 17.9315 43.5886 16.9974 43.5901L11.6797 43.5946L11.68 43.1208Z" fill="#303030"/>
<path d="M11.6787 42.2223L19.9039 42.2197C19.9062 42.3864 19.9046 42.5197 19.8957 42.6864L11.6794 42.7002L11.6787 42.2223Z" fill="#303030"/>
<path d="M12.2215 33.4214C12.4803 33.4011 12.9087 33.4096 13.1815 33.4091L14.8406 33.4079L20.0753 33.406C20.0392 35.3157 20.0762 37.3302 20.0651 39.2561C19.77 39.2669 19.4311 39.261 19.1327 39.2624L11.2436 39.2818L11.2407 36.0231C11.2418 35.4778 11.1638 34.3516 11.4535 33.923C11.6321 33.6598 11.9087 33.4791 12.2215 33.4214Z" fill="white"/>
<path d="M13.2882 35.4949C14.104 35.3806 14.8586 35.9475 14.9761 36.7628C15.0937 37.5781 14.53 38.335 13.7152 38.4559C12.8956 38.5775 12.1333 38.0098 12.015 37.1897C11.8968 36.3697 12.4677 35.6097 13.2882 35.4949Z" fill="#303030"/>
<path d="M17.2259 35.4974C18.0394 35.333 18.8308 35.8641 18.987 36.6792C19.1433 37.4943 18.6044 38.2803 17.7878 38.4285C16.9825 38.5746 16.2098 38.0449 16.0558 37.2411C15.9017 36.4373 16.4237 35.6594 17.2259 35.4974Z" fill="#303030"/>
<path d="M35.9861 33.3953C38.5028 33.3545 41.0413 33.4187 43.5602 33.3941C43.9222 33.3906 44.205 33.5266 44.4534 33.7919C44.7971 34.1589 44.7308 34.5968 44.7422 35.0577C44.7418 36.0554 44.7511 37.0604 44.7526 38.059C44.7531 38.46 44.7695 38.8854 44.7477 39.2836C41.8627 39.2445 38.8809 39.3028 35.9824 39.2947C35.9823 37.3321 35.9649 35.3566 35.9861 33.3953Z" fill="white"/>
<path d="M42.317 35.4884C42.8383 35.4028 43.3654 35.6043 43.6966 36.0158C44.0279 36.4273 44.1121 36.9852 43.9171 37.4762C43.7221 37.9672 43.2779 38.3153 42.7546 38.3874C41.9599 38.4968 41.2248 37.9471 41.105 37.1538C40.9853 36.3606 41.5254 35.6184 42.317 35.4884Z" fill="#303030"/>
<path d="M38.2858 35.5358C39.0731 35.4256 39.8003 35.9752 39.9093 36.7626C40.0182 37.55 39.4674 38.2764 38.6798 38.384C37.894 38.4914 37.1698 37.9422 37.0611 37.1566C36.9524 36.371 37.5004 35.6458 38.2858 35.5358Z" fill="#303030"/>
<path d="M36.2267 46.5938L43.2059 46.5938C43.2416 47.1081 43.2898 49.1452 43.1933 49.5782C43.1368 49.8314 43.0269 50.0251 42.8642 50.225C42.5657 50.4767 42.2969 50.569 41.9078 50.5807C40.986 50.6083 40.0567 50.5828 39.1341 50.5817C38.604 50.5811 37.7225 50.6413 37.2216 50.5327C36.9954 50.4836 36.7662 50.341 36.6022 50.1807C36.4551 50.037 36.3462 49.8806 36.2884 49.6811C36.1364 49.1574 36.2227 47.217 36.2267 46.5938Z" fill="white"/>
<path d="M12.8395 46.5902L19.8019 46.5884L19.807 48.3485C19.8083 49.0778 19.9188 49.624 19.4315 50.2258C19.2832 50.3643 19.0395 50.5319 18.841 50.5504C18.301 50.6007 17.6751 50.579 17.1281 50.5779L14.2563 50.5854C13.8115 50.5831 13.5358 50.5144 13.2121 50.1816C12.7563 49.7129 12.8439 48.9621 12.8408 48.3619C12.8357 47.7713 12.8353 47.1808 12.8395 46.5902Z" fill="white"/>
<path d="M21.9203 38.116L34.2511 38.1204L34.2378 39.2365C34.125 39.2628 33.4587 39.2518 33.2993 39.2513L31.1333 39.2461L21.918 39.24C21.9226 38.8672 21.9198 38.4892 21.9203 38.116Z" fill="white"/>
<path d="M21.9277 34.6489L34.2639 34.6699L34.2583 35.7658L21.9293 35.7729L21.9277 34.6489Z" fill="white"/>
<path d="M21.9242 36.3928L34.2662 36.3984C34.2672 36.7633 34.272 37.1319 34.259 37.4963C32.3973 37.542 30.3963 37.5052 28.5296 37.5023L21.918 37.511L21.9242 36.3928Z" fill="white"/>
<path d="M21.9121 29.4829L34.2535 29.4955L34.2554 30.5831L21.9097 30.6001L21.9121 29.4829Z" fill="white"/>
<path d="M21.9067 32.9297C26.0036 32.9761 30.1618 32.9387 34.2633 32.9305C34.2574 33.2955 34.2595 33.6673 34.2581 34.033L21.9076 34.0293L21.9067 32.9297Z" fill="white"/>
<path d="M30.7547 31.2129L34.2636 31.2178L34.2629 32.3029C33.3006 32.3216 32.2674 32.2984 31.2981 32.2966L25.5088 32.3048L21.9082 32.3119L21.9166 31.2255L30.7547 31.2129Z" fill="white"/>
<path d="M21.9097 27.8069C25.9902 27.8587 30.1817 27.8285 34.2627 27.8113C34.267 28.1709 34.2645 28.5306 34.2551 28.8901C33.1148 28.9193 31.8065 28.8855 30.6479 28.8848L21.9104 28.8904L21.9097 27.8069Z" fill="white"/>
<path d="M21.9196 26.1225L34.2567 26.1167L34.2596 27.1744L21.9102 27.1809L21.9196 26.1225Z" fill="white"/>
</svg>
