<svg width="56" height="56" viewBox="0 0 56 56" fill="none" xmlns="http://www.w3.org/2000/svg">
<rect width="56" height="56" rx="8" fill="#303030"/>
<path d="M3.26855 21.738C4.8835 22.5783 6.49393 23.5169 8.08977 24.3984L21.3844 31.772C26.1993 34.3874 30.9996 37.2059 36.4066 38.4013C38.5949 38.8851 40.8191 39.1504 43.0585 39.2281C43.6044 39.2471 44.1502 39.2633 44.696 39.2833C46.0271 39.3446 47.3591 39.3856 48.6915 39.4064C48.5656 39.6342 48.3881 39.9072 48.2417 40.1244C47.6521 40.9994 47.1502 41.9602 46.4215 42.7254C45.3165 43.7295 43.6703 44.703 42.1846 44.8846C38.5967 45.3231 34.6466 43.5293 31.5194 42.0245C29.8453 41.2305 28.1969 40.3831 26.577 39.4835C22.2559 37.0948 17.9896 34.6081 13.7814 32.0255C11.5064 30.6536 9.24641 29.257 7.00176 27.8361C6.22077 27.3379 5.03466 26.6379 4.31136 26.11C3.98347 24.913 3.73608 23.6964 3.44186 22.4911C3.387 22.2664 3.28083 21.9562 3.26855 21.738Z" fill="white"/>
<path d="M22.5743 13.8472C22.6473 13.8372 22.8125 13.8356 22.8929 13.8323C22.8877 14.3432 22.8852 14.8542 22.8854 15.3651C22.8847 15.7095 22.8719 16.2006 22.9187 16.5338L32.3294 19.5164C34.1895 20.137 36.0448 20.7718 37.8952 21.4209L44.257 23.5753C43.4653 23.7663 42.4303 23.948 41.6166 24.1148L33.3544 25.7502C32.3876 25.359 31.3382 24.8804 30.3721 24.4621C27.8894 23.3957 25.4181 22.3032 22.9586 21.1846C21.1651 20.3944 19.3637 19.6227 17.5545 18.8695C16.5154 18.4249 15.471 17.9931 14.4212 17.5744C14.3213 18.6502 14.1021 20.0612 13.9315 21.1326C13.0984 21.2742 12.1861 21.3423 11.3303 21.4831C11.2881 19.2356 11.3119 17.006 11.2471 14.7516C12.6354 14.6899 14.1172 14.5356 15.5068 14.4192L22.5743 13.8472Z" fill="white"/>
<path d="M32.3902 19.8587C32.6006 19.8151 33.4869 20.1682 33.807 20.2572C31.2863 20.7595 28.7548 21.1886 26.2288 21.6878L25.9302 21.7457L24.8721 21.3371C25.5757 21.1493 26.5803 21.004 27.324 20.8583L32.3902 19.8587Z" fill="#303030"/>
<path d="M40.5302 22.5969C40.8061 22.6386 41.2343 22.8183 41.5039 22.9265C38.6336 23.4714 35.771 24.0568 32.9171 24.6824L32.7017 24.7308C32.458 24.6378 32.2203 24.53 31.9897 24.4081C32.7676 24.2787 33.7986 24.0288 34.5831 23.8564C35.8909 23.5705 37.2007 23.2942 38.5125 23.0274C39.1783 22.8875 39.8654 22.7172 40.5302 22.5969Z" fill="#303030"/>
<path d="M24.9837 17.5353C25.2681 17.4841 26.0581 17.7892 26.353 17.9017C24.3433 18.3073 22.1756 18.6245 20.1318 18.9958C20.0476 19.0127 19.9527 19.0394 19.8683 19.061C19.5242 18.9288 19.1924 18.7861 18.8433 18.6644C19.5763 18.4766 20.6482 18.3167 21.4073 18.184L24.9837 17.5353Z" fill="#303030"/>
<path d="M39.1143 22.2121C39.2677 22.1882 39.7816 22.4304 39.9333 22.5015C37.2014 23.0407 34.4763 23.6135 31.7585 24.2196L31.5526 24.2609L30.9614 23.9854C32.8568 23.5501 34.7564 23.1335 36.6599 22.7357C37.466 22.5661 38.3105 22.3598 39.1143 22.2121Z" fill="#303030"/>
<path d="M37.8058 21.7989C38.0083 21.746 38.4795 21.9585 38.6944 22.04C37.1035 22.3593 35.5648 22.721 33.9858 23.0723L30.8029 23.7555C30.4059 23.8261 30.2935 23.7254 29.9263 23.5386L33.2562 22.819C34.7562 22.4839 36.306 22.1137 37.8058 21.7989Z" fill="#303030"/>
<path d="M31.0726 19.4805C31.2656 19.4782 31.7222 19.6516 31.9019 19.7218C29.4664 20.1699 27.0715 20.6792 24.6426 21.1352C24.4235 21.1995 24.054 20.9676 23.8359 20.8576C24.4634 20.6812 25.5526 20.5095 26.2311 20.3826C27.813 20.0865 29.4878 19.7207 31.0726 19.4805Z" fill="#303030"/>
<path d="M29.4597 19.0635C29.6298 19.0455 30.2965 19.2747 30.4916 19.3366L23.6587 20.6154C23.3302 20.6636 22.9946 20.4714 22.6694 20.3415C23.2355 20.2241 23.8437 20.1347 24.4162 20.0329L26.4196 19.6568C27.4346 19.4734 28.4554 19.2992 29.4597 19.0635Z" fill="#303030"/>
<path d="M36.6009 21.4148C36.7907 21.4501 37.1104 21.5682 37.3037 21.6332C37.1311 21.7247 35.839 21.9792 35.5488 22.0443L29.7085 23.3288C29.4657 23.4143 29.1637 23.2085 28.937 23.0971C29.1763 23.0242 29.5778 22.9486 29.83 22.8935C30.4312 22.7622 31.0332 22.6344 31.6359 22.5103C33.2972 22.1741 34.9524 21.8089 36.6009 21.4148Z" fill="#303030"/>
<path d="M35.6077 21.0659C35.8277 21.1196 35.9879 21.1764 36.2025 21.2527C35.9021 21.3467 35.4516 21.4357 35.1374 21.5041C34.4579 21.6511 33.7772 21.7925 33.0953 21.9282C31.5429 22.2478 30.0191 22.5945 28.4525 22.8818C28.2333 22.805 28.0086 22.7163 27.8027 22.609C30.4093 22.1084 32.9889 21.5559 35.6077 21.0659Z" fill="#303030"/>
<path d="M23.6318 17.1006C23.8396 17.0636 24.4438 17.3145 24.6638 17.3963C24.2626 17.4863 23.5383 17.5691 23.0814 17.6521L18.5943 18.4636C18.3053 18.5084 17.8804 18.2706 17.5972 18.1442C18.0965 18.0737 18.6634 17.9594 19.1671 17.8725L22.1325 17.3629C22.6232 17.2775 23.1417 17.1634 23.6318 17.1006Z" fill="#303030"/>
<path d="M22.3331 16.7172C22.5085 16.6881 22.992 16.8716 23.1857 16.9355C22.7549 17.0251 22.2751 17.0928 21.8363 17.1705L19.3533 17.6135C18.7178 17.7215 17.7603 17.9254 17.1447 17.9761C16.8436 17.8743 16.5471 17.759 16.2563 17.6306C18.2724 17.3497 20.3145 17.016 22.3331 16.7172Z" fill="#303030"/>
<path d="M28.2115 18.7111C28.3035 18.6933 28.9313 18.8866 29.0659 18.9236C27.6806 19.1938 26.2781 19.4433 24.8897 19.7038C24.0793 19.8558 23.2502 19.9603 22.4293 20.1163L22.2145 20.1638C21.9929 20.0747 21.8371 20.0006 21.6235 19.8922C22.2174 19.7484 23.09 19.6455 23.7154 19.5235C25.2082 19.2323 26.7185 19.0037 28.2115 18.7111Z" fill="#303030"/>
<path d="M14.6159 17.8533C15.1248 18.0197 16.0868 18.4565 16.6001 18.6776C17.887 19.2288 19.1701 19.7888 20.4493 20.3577L33.1918 25.9484C33.3612 27.8273 33.4045 29.7846 33.5582 31.671L33.0656 31.4566C32.0316 31.0105 31.0953 30.5583 30.0792 30.0958C28.0366 29.1775 26.004 28.2366 23.982 27.2735C23.185 26.8946 22.3961 26.4911 21.596 26.1194L18.434 24.6845C17.6288 24.3039 16.8256 23.919 16.0245 23.5299C15.3652 23.2152 14.6032 22.9199 13.9756 22.5661L14.6159 17.8533Z" fill="white"/>
<path d="M26.7668 23.749C27.4261 24.0928 28.3322 24.4724 29.024 24.7728C30.0214 25.203 31.0155 25.6406 32.0064 26.0855C31.9964 27.4902 32.0205 28.8613 32.0227 30.2612C30.8648 29.7844 29.6645 29.2137 28.5192 28.6968C28.0543 28.4869 27.1191 28.057 26.7139 27.805C26.7127 26.4573 26.7747 25.1113 26.7668 23.749Z" fill="#303030"/>
<path d="M20.7587 21.0679C21.2058 21.2837 21.7233 21.5002 22.1818 21.7059L25.785 23.3013C25.732 23.6265 25.7041 24.221 25.682 24.5698L25.5347 27.1864C25.5319 27.2455 25.5405 27.2167 25.504 27.2713C25.4083 27.2672 20.9767 25.1009 20.6348 24.9269L20.7587 21.0679Z" fill="#303030"/>
<path d="M15.1315 18.6277C16.1694 19.0212 17.3106 19.579 18.3412 20.0217C18.7764 20.2087 19.2902 20.4175 19.7054 20.6122C19.6878 20.9817 19.559 24.3109 19.5184 24.3938L19.4681 24.392L16.2472 22.9543C15.8047 22.7528 15.2252 22.5105 14.8057 22.2831C14.8223 21.8768 14.8826 21.4861 14.917 21.0839C14.9863 20.2732 15.0881 19.4379 15.1315 18.6277Z" fill="#303030"/>
<path d="M44.3097 23.7939L44.3766 23.7913C44.404 23.8172 44.4186 23.8317 44.4274 23.8706C44.5733 24.5417 44.7188 25.2053 44.8994 25.8683C45.185 26.9172 45.4141 27.9897 45.6559 29.0497C45.2915 29.1414 44.82 29.221 44.4446 29.294C43.7073 29.4342 42.9715 29.5824 42.2373 29.7385C39.6928 30.2899 37.1546 30.8697 34.623 31.4778C34.3592 31.536 34.0634 31.6212 33.7996 31.6906C33.8043 31.4187 33.7877 31.0741 33.7608 30.8032C33.6021 29.2104 33.5995 27.5818 33.4551 25.9932C34.1675 25.7981 35.196 25.6279 35.937 25.4735L42.2065 24.2218C42.8964 24.081 43.6296 23.9528 44.3097 23.7939Z" fill="white"/>
<path d="M43.3585 25.6796C43.4773 25.6686 43.5746 25.6458 43.6789 25.72C43.9646 25.9233 44.4134 27.2016 43.8905 27.3455C43.0864 27.5668 42.119 27.7451 41.2961 27.8802C40.7018 27.9245 40.4767 27.1139 40.5042 26.6612C40.5313 26.2152 41.4514 26.111 41.7855 26.0369C42.3113 25.9247 42.8357 25.8055 43.3585 25.6796Z" fill="#303030"/>
<path d="M37.2604 27.0758C37.698 27.022 37.8267 27.2758 37.9448 27.6414C38.0286 27.9007 38.1613 28.1764 37.9946 28.44C37.8473 28.6635 37.4359 28.726 37.1844 28.7811C36.5333 28.9239 35.8787 29.1001 35.2307 29.2529C34.5287 29.3023 34.3102 28.3645 34.5039 27.8503C34.5884 27.6259 35.5568 27.4659 35.8344 27.4047L37.2604 27.0758Z" fill="#303030"/>
<path d="M5.62549 14.4155C5.65912 14.4107 5.63599 14.4116 5.69292 14.4318C5.71655 14.5583 5.69281 15.2208 5.69084 15.4077C5.18922 15.5279 4.28196 15.6046 3.87905 15.8966C3.69838 16.0276 3.60055 16.2147 3.57601 16.4347C3.53493 16.803 3.57765 17.9841 3.81109 18.2426C4.06425 18.5228 8.03841 20.5136 8.63385 20.8175L20.7124 26.86L24.5208 28.7216C27.4844 30.1822 30.6192 31.7895 33.8899 32.3924C34.6209 32.5271 35.8961 32.4783 36.659 32.4734C37.9019 32.4731 39.1448 32.4502 40.3869 32.4047L48.632 32.1335C49.6105 32.0949 50.5746 32.0679 51.5539 32.0584C52.0803 32.0534 52.5953 31.9751 53.1254 32.0265C53.4078 32.2254 53.2992 32.5941 53.1944 32.8559C52.9063 32.875 52.6179 32.8887 52.3293 32.897C51.4538 32.9547 50.5322 32.9826 49.6526 33.0222L43.7881 33.2793C42.3541 33.3448 40.9197 33.3989 39.4848 33.4417C37.6424 33.5123 35.6006 33.627 33.7769 33.3534C30.5855 32.8747 27.4562 31.296 24.5777 29.8785C22.4738 28.8223 20.3646 27.7768 18.2501 26.7421C14.9402 25.1438 11.6575 23.4897 8.40345 21.7806C7.26677 21.1921 6.13321 20.5976 5.00289 19.997C4.29076 19.621 3.4396 19.1982 2.77109 18.7762C2.74044 18.1701 2.56356 16.6621 2.63843 16.1669C2.6705 15.9425 2.75125 15.7279 2.87501 15.538C3.38278 14.7669 4.74601 14.6044 5.62549 14.4155Z" fill="white"/>
<path d="M5.97221 12.9153C6.62365 13.2007 7.40984 13.4479 8.08643 13.6996C9.0369 14.0532 10.0236 14.4755 10.9824 14.7844L11.0394 19.6722C11.0431 20.1113 11.1057 21.0007 11.0662 21.397C10.4473 21.1489 9.75981 20.7868 9.15245 20.501C8.09091 20.0014 6.99968 19.4973 5.9657 18.9443C5.91446 16.9724 5.99119 14.9075 5.97221 12.9153Z" fill="white"/>
<path d="M6.35972 14.1438C7.01077 14.3686 7.59445 14.6172 8.23375 14.8716C8.23512 15.3407 8.23331 15.8099 8.22823 16.279C7.65505 16.0548 6.89013 15.7611 6.35742 15.4873C6.38433 15.1862 6.3607 14.4692 6.35972 14.1438Z" fill="#303030"/>
<path d="M17.2585 12.0472C17.4095 12.0292 17.612 12.0117 17.7587 12.0497C18.4163 12.2196 19.1173 12.4797 19.7596 12.7023L21.5075 13.3274C21.8079 13.4326 22.0846 13.5086 22.3817 13.6294C21.1675 13.6742 19.7322 13.8214 18.5161 13.9209L11.3684 14.4988C11.2064 14.5166 11.0849 14.5348 10.9275 14.4823C10.2405 14.253 9.55255 13.9638 8.87152 13.7121C8.38295 13.531 7.89333 13.3529 7.40267 13.1776C7.21039 13.1088 6.42984 12.8674 6.37695 12.7275C6.54178 12.6511 11.2127 12.4495 11.6964 12.4213C13.5512 12.309 15.4053 12.1844 17.2585 12.0472Z" fill="white"/>
<path d="M2.80811 19.1499C2.9131 19.1833 3.36735 19.4405 3.48981 19.5065L5.02698 20.3275L11.2072 23.5777C14.4986 25.2795 17.8512 26.8582 21.1809 28.483C25.5718 30.6256 29.9184 33.0971 34.7519 34.0924C34.844 34.1114 34.951 34.164 34.9967 34.2493C35.0086 34.3559 34.9937 34.3749 34.9546 34.4728C34.9369 34.4811 34.8425 34.5229 34.8308 34.5208C30.219 33.6485 25.9909 31.2599 21.8133 29.2417L16.7734 26.7895C16.022 26.4254 15.2656 26.0807 14.517 25.7079C12.6519 24.7791 10.8021 23.8199 8.96827 22.8308L5.18435 20.8295C4.48859 20.4687 3.52369 20.0238 2.89051 19.6085C2.84715 19.4545 2.83024 19.3076 2.80811 19.1499Z" fill="white"/>
<path d="M3.02734 20.4646C3.48127 20.6648 4.36743 21.1933 4.85357 21.4521C6.34503 22.232 7.82542 23.0328 9.29432 23.8543C10.6663 24.6138 12.0681 25.3281 13.4196 26.1215C14.3602 26.6738 15.2664 27.2835 16.2102 27.8333C17.9854 28.8532 19.7731 29.8511 21.5731 30.8265C24.0341 32.2083 26.5425 33.5041 29.0937 34.7116C30.6278 35.4275 32.2188 36.0142 33.8504 36.4656C34.0979 36.5319 34.8888 36.6615 35.0139 36.8671C35.0329 36.9778 35.0232 36.986 34.9767 37.0941C34.7198 37.2248 34.0995 36.9706 33.8026 36.8891C30.1979 35.9001 26.6895 34.0196 23.431 32.2697C20.0279 30.4423 16.8019 28.693 13.5649 26.6099C13.1966 26.3729 12.8118 26.1579 12.4244 25.9564C10.5071 25.0109 8.66 23.9408 6.78406 22.9178C5.55736 22.2489 4.31277 21.6131 3.09315 20.9333C3.05572 20.7538 3.04406 20.6475 3.02734 20.4646Z" fill="white"/>
<path d="M13.521 25.8076C13.6935 25.8235 14.4471 26.2127 14.6522 26.3083C21.1305 29.327 27.2544 33.4396 34.2114 35.2952C34.4187 35.3505 34.8631 35.392 34.9948 35.5507C35.0225 35.6535 34.9949 35.7016 34.9621 35.8037C34.7851 35.8878 34.5026 35.8084 34.3165 35.7616C30.1798 34.7208 26.3504 32.743 22.5837 30.7937C19.5065 29.2361 16.4838 27.5731 13.521 25.8076Z" fill="white"/>
<path d="M45.2676 26.113C45.7373 26.3085 52.5802 31.5091 52.7455 31.7607C52.369 31.7909 51.7325 31.7942 51.3513 31.7968C50.8471 31.4908 49.899 30.7226 49.3781 30.331C48.155 29.4117 46.8147 28.4895 45.6325 27.535C45.5089 27.2352 45.3421 26.444 45.2676 26.113Z" fill="white"/>
<path d="M6.10111 10.9676C7.94561 10.9491 9.8115 11.0222 11.657 11.0429C12.0866 11.0477 12.0024 11.6548 11.9613 11.9548C11.9162 12.0383 11.8798 12.0437 11.7926 12.083C10.8527 12.1318 9.68074 12.0739 8.72934 12.0724C7.81125 12.0708 6.83048 12.0655 5.91714 12.0196C5.90325 11.6661 5.80711 11.2015 6.10111 10.9676Z" fill="white"/>
<path d="M41.5876 34.3944C41.9182 34.3523 42.3996 34.3547 42.7522 34.3396L45.4057 34.2427C47.6572 34.1588 49.9721 34.0329 52.2174 33.9893C52.1035 34.1554 51.9609 34.3765 51.8397 34.5318C49.2363 34.4711 46.6321 34.4463 44.0279 34.4575C43.3049 34.4585 42.4708 34.4259 41.768 34.4441C41.3294 34.4643 40.8512 34.4523 40.409 34.4491C40.2932 34.4628 40.2809 34.465 40.167 34.4485L40.1813 34.4246C40.4703 34.3989 40.7398 34.3864 41.0294 34.402L41.5876 34.3944Z" fill="white"/>
<path d="M40.409 34.4489C40.2932 34.4627 40.2809 34.4649 40.167 34.4484L40.1813 34.4245C40.4703 34.3987 40.7398 34.3863 41.0294 34.4019C40.8156 34.4279 40.6024 34.425 40.409 34.4489Z" fill="#303030"/>
<path d="M50.3153 35.2611C50.638 35.2429 51.0191 35.2465 51.3468 35.2424C51.2371 35.4174 51.1255 35.5911 51.012 35.7635C47.7939 35.6465 44.4888 35.6836 41.2549 35.6384C40.872 35.6365 40.5008 35.6431 40.1216 35.5844L50.3153 35.2611Z" fill="white"/>
<path d="M49.9564 36.4648C50.1571 36.4524 50.3739 36.4487 50.5762 36.4414C50.4609 36.6164 50.3436 36.7901 50.2244 36.9625C47.1211 36.8942 44.0172 36.8516 40.9131 36.8346C40.779 36.8337 40.2946 36.8385 40.1919 36.8116C40.4782 36.7772 40.8253 36.7812 41.1181 36.7717C41.6054 36.7552 42.0926 36.7347 42.5795 36.7102C45.0163 36.5946 47.5088 36.5522 49.9564 36.4648Z" fill="white"/>
<path d="M41.9346 37.8653C42.703 37.7986 43.8275 37.8181 44.6297 37.8078L49.717 37.7439L49.4357 38.1465C47.2883 38.0541 45.1164 38.0793 42.9666 37.973C42.4441 37.9472 41.8391 37.9722 41.3369 37.9308C40.9575 37.9342 40.6307 37.9412 40.2539 37.8805C40.8026 37.8642 41.3834 37.8694 41.9346 37.8653Z" fill="white"/>
<path d="M40.2539 37.8804C40.8026 37.8641 41.3834 37.8693 41.9346 37.8652L42.1138 37.8838L42.1305 37.9066C41.87 37.9428 41.5837 37.905 41.3369 37.9307C40.9575 37.9341 40.6307 37.9411 40.2539 37.8804Z" fill="white"/>
</svg>
