<svg width="40" height="40" viewBox="0 0 40 40" fill="none" xmlns="http://www.w3.org/2000/svg">
<g clip-path="url(#clip0_58_176)">
<mask id="mask0_58_176" style="mask-type:luminance" maskUnits="userSpaceOnUse" x="0" y="0" width="40" height="40">
<path d="M32.0002 39.9901H8.02493C3.60991 39.9901 0.0322266 36.4108 0.0322266 31.9966V8.01048C0.0322266 3.59347 3.60991 0.0141602 8.02493 0.0141602H32.0002C36.4153 0.0141602 39.9929 3.59347 39.9929 8.01048V31.9966C39.9901 36.4108 36.4124 39.9901 32.0002 39.9901Z" fill="white"/>
</mask>
<g mask="url(#mask0_58_176)">
<path d="M39.9901 0.0141602H0.0322266V39.9901H39.9901V0.0141602Z" fill="#777777"/>
</g>
<mask id="mask1_58_176" style="mask-type:luminance" maskUnits="userSpaceOnUse" x="0" y="0" width="40" height="40">
<path d="M32.0002 0.0142822H8.02493C3.60991 0.0142822 0.0322266 3.59359 0.0322266 8.01061V31.9968C0.0322266 36.411 3.60991 39.9903 8.02493 39.9903H32.0002C36.4124 39.9903 39.9901 36.411 39.9929 31.9968V8.01061C39.9929 3.59359 36.4153 0.0142822 32.0002 0.0142822Z" fill="white"/>
</mask>
<g mask="url(#mask1_58_176)">
<path d="M44.4103 34.2644C41.3742 36.9966 37.874 41.0293 33.4772 40.8706C32.2936 40.0726 34.1654 38.517 34.7653 37.8437C36.6817 35.6931 38.5723 33.3974 40.4352 31.0575C47.1364 22.6401 44.9427 27.3321 44.4103 34.2644Z" fill="#303030"/>
<path d="M36.6179 -7.13602C33.6271 -0.294659 29.96 6.50151 24.7856 11.9679C21.2051 15.7504 18.7123 18.5751 14.2946 21.9745C9.18427 25.9069 4.18467 28.9722 -0.655799 33.142C-3.2137 35.498 -6.22942 37.4463 -9.4834 38.8305C-9.46346 39.096 -9.18999 42.9348 -9.18153 42.9856C-9.13643 42.9602 -8.23143 42.2325 -8.051 42.0999C-0.414216 36.7864 8.36654 33.2157 15.8422 27.5254C25.0408 19.7842 32.7452 10.2125 39.3246 0.180706C45.3124 -8.18325 49.2394 -8.32417 36.6179 -7.13602Z" fill="#303030"/>
<path d="M7.34229 2.12957C5.55767 4.01936 3.81535 5.91196 2.0702 7.84123C1.1201 8.89613 0.263035 10.0328 -0.675791 11.1046C-2.35327 13.0198 -4.08996 14.9124 -6.07193 16.4778C-8.08208 18.063 -10.2445 19.6651 -12.2941 21.1995C-12.2998 21.0838 -12.5422 15.7078 -12.5479 15.5865C-11.6795 14.1142 -10.8055 12.4472 -10.1599 10.848C-9.7793 9.90307 -9.4438 8.91023 -9.06038 7.96534C-8.32736 6.14607 -7.36598 4.48193 -5.9507 3.15626C-5.16129 2.41445 -4.25348 1.88982 -3.32029 1.39058C-0.520729 -0.109963 2.27601 -1.63589 5.08121 -3.12234C6.75306 -4.01082 8.01892 -5.55931 9.51033 -6.72985L15.428 -6.9978C12.7412 -3.93748 10.1419 -0.834849 7.34229 2.12957Z" fill="#303030"/>
<path d="M20.3187 45.1563C22.5458 42.8941 30.3483 37.6393 29.1051 36.9191C28.9932 36.8543 28.8548 36.8544 28.7384 36.9107C24.4533 38.9832 20.4527 41.9279 17.442 45.6616C17.3643 45.758 17.2475 45.8139 17.1238 45.8127C16.4188 45.8054 14.1397 45.7798 12.6775 45.7636C12.2869 45.7593 12.1303 45.2569 12.4493 45.0313C12.6969 44.8561 12.9018 44.7073 13.0173 44.6215C16.5484 41.8981 20.4817 39.8538 24.2926 37.6318C28.8614 34.9678 32.8226 31.3762 35.9229 27.0903C37.3489 25.119 38.8029 23.1722 40.506 21.4473C40.5243 21.4288 40.5445 21.4121 40.5661 21.3975C45.3207 18.1646 46.636 8.49649 53.1946 5.08002C53.4656 4.93886 53.7887 5.13561 53.7861 5.44124C53.7645 7.92838 50.4789 9.95056 50.2634 12.5027C50.2613 12.5278 50.2571 12.5528 50.2504 12.5771C47.7008 21.8523 38.7154 28.1436 34.4513 32.9859C31.9184 35.8622 28.9148 41.5847 25.4626 45.4053C25.4246 45.4473 25.3962 45.4968 25.3786 45.5505C25.2059 46.0767 22.1156 45.895 20.5928 45.841C20.2429 45.8286 20.0731 45.4058 20.3187 45.1563Z" fill="#303030"/>
<path d="M-11.1602 46.922C-2.61122 41.0204 7.60794 37.9487 15.9815 31.8649C20.8319 27.6899 24.5421 22.2371 29.4612 18.1779C30.8205 17.3585 30.4391 18.6019 29.9978 19.4076C25.0571 29.3216 15.1919 35.0102 5.99975 40.4483C-0.629436 44.6892 -1.94984 48.2247 -11.1602 46.922Z" fill="#303030"/>
<path d="M47.7296 6.26509C55.1508 2.57871 53.2249 -1.31528 52.264 -8.75537C48.3855 -5.99939 45.9462 -2.88307 42.984 0.753282C34.2221 10.8977 31.1179 25.7437 19.2448 33.336C13.1482 36.8842 8.22045 41.9307 3.01172 46.6071C4.18909 46.1928 10.7924 46.8841 11.1258 45.067C12.6829 42.4333 14.3822 40.3432 17.244 39.102C22.6124 36.2824 27.2446 32.2785 31.9548 28.4992C38.418 22.103 38.4233 10.0406 47.7296 6.26509Z" fill="#303030"/>
<path d="M35.748 -7.11013C31.0312 1.43838 22.3866 10.175 13.645 16.7166C10.2409 19.264 6.28884 20.9724 2.10765 21.7397C-1.08234 22.3251 -2.47297 23.2558 -7.03182 27.0872C-8.60795 28.7309 -9.45656 30.2568 -10.8183 32.8828C-10.8211 32.7925 -11.1904 24.6918 -11.1904 24.6918C-7.5637 19.7489 -2.01852 17.605 2.18164 13.3928C5.64506 9.77465 8.06236 5.23736 11.257 1.38554C12.852 -0.642842 17.9083 -5.21806 18.8604 -6.34594C18.8717 -6.34576 24.0931 -6.58269 24.0931 -6.58269C21.7063 -3.55819 19.2753 -0.672002 14.232 5.29908C13.6252 6.01749 8.61338 11.1801 6.78143 14.0204C6.18497 14.9452 5.78095 15.8856 6.23105 16.2364C6.70784 16.6081 7.37924 15.99 8.46499 15.3113C14.6953 11.4168 19.0507 7.74056 24.0961 1.45334C32.2633 -8.72425 26.0031 -7.81938 35.748 -7.11013Z" fill="#303030"/>
</g>
<mask id="mask2_58_176" style="mask-type:luminance" maskUnits="userSpaceOnUse" x="0" y="0" width="40" height="40">
<path d="M32.0002 0.0142822H8.02493C3.60991 0.0142822 0.0322266 3.59359 0.0322266 8.01061V31.9968C0.0322266 36.411 3.60991 39.9903 8.02493 39.9903H32.0002C36.4124 39.9903 39.9901 36.411 39.9929 31.9968V8.01061C39.9929 3.59359 36.4153 0.0142822 32.0002 0.0142822Z" fill="white"/>
</mask>
<g mask="url(#mask2_58_176)">
<path d="M16.7808 23.0468L13.2551 23.992L16.1603 16.8228C16.2241 16.6627 16.1462 16.4814 15.9862 16.4176C15.9245 16.393 15.8565 16.3887 15.7922 16.4055L9.27824 18.1517C8.70328 18.3058 8.36203 18.8972 8.51609 19.4724C8.67015 20.0476 9.26122 20.389 9.83619 20.2349L12.7654 19.4497L9.84402 26.6262C9.77787 26.7835 9.85163 26.9646 10.0088 27.0308C10.0732 27.0579 10.1449 27.0623 10.2121 27.0434L17.3395 25.1328C17.9057 24.949 18.2158 24.3407 18.032 23.7743C17.8616 23.249 17.3222 22.9375 16.7824 23.0525L16.7808 23.0468ZM37.8188 10.5008C37.2437 10.655 36.9025 11.2463 37.0566 11.8215L37.9923 15.315L31.1681 12.3561C31.0126 12.2861 30.8298 12.3555 30.7598 12.5112C30.7303 12.5769 30.7247 12.6508 30.7439 12.7203L32.6672 19.9015C32.8213 20.4768 33.4123 20.8181 33.9873 20.664C34.5623 20.5098 34.9036 19.9186 34.7495 19.3433L33.8138 15.8498L40.6387 18.8116C40.7971 18.8791 40.9802 18.8054 41.0476 18.647C41.0748 18.583 41.08 18.5118 41.0621 18.4446L39.1388 11.2633C38.9847 10.6881 38.3937 10.3467 37.8188 10.5008ZM24.7095 21.1326C22.329 21.7707 20.2116 20.9927 19.9108 19.8694C19.6099 18.7462 21.0548 17.0133 23.4353 16.3752C25.8158 15.737 27.9332 16.515 28.234 17.6382C28.5348 18.7614 27.0956 20.4929 24.7095 21.1326ZM22.8781 14.2948C19.4312 15.2188 17.1716 17.9637 17.8313 20.4269C18.491 22.8901 21.8198 24.137 25.2667 23.213C28.7135 22.289 30.9731 19.544 30.3134 17.0808C29.6536 14.6176 26.325 13.3708 22.8781 14.2948ZM4.21725 26.629C2.903 26.983 1.55071 26.2041 1.19683 24.8891C0.843062 23.5742 1.62165 22.2214 2.93593 21.8674C4.25018 21.5134 5.60245 22.2924 5.95632 23.6072L5.95707 23.61C6.30906 24.9242 5.53047 26.2753 4.21725 26.629ZM2.38513 19.7883C-0.0784001 20.447 -1.54177 22.9791 -0.88328 25.4437C-0.224861 27.9084 2.30602 29.3724 4.76955 28.7137C7.23306 28.0549 8.69645 25.5229 8.03794 23.0582C8.03743 23.0564 8.03693 23.0545 8.03643 23.0526C7.37687 20.59 4.84672 19.1285 2.38513 19.7883Z" fill="white"/>
</g>
</g>
<defs>
<clipPath id="clip0_58_176">
<rect width="40" height="40" fill="white"/>
</clipPath>
</defs>
</svg>
