<svg width="40" height="40" viewBox="0 0 40 40" fill="none" xmlns="http://www.w3.org/2000/svg">
<path d="M0 12C0 5.37258 5.37258 0 12 0H28C34.6274 0 40 5.37258 40 12V28C40 34.6274 34.6274 40 28 40H12C5.37258 40 0 34.6274 0 28V12Z" fill="#303030"/>
<path d="M16.4544 18.3908H17.8912V13.7492H19.7888V12.1496H16.4544V18.3908ZM13.4848 17.0022C12.8608 17.0367 12.3328 16.4574 12.304 15.7094C12.304 15.6711 12.304 15.6289 12.304 15.5905H15.8496C15.8496 15.5905 15.872 15.2683 15.872 14.9384C15.872 13.0511 14.9376 12.0115 13.4816 12.0115C11.9424 12.0115 10.8704 13.3579 10.8704 15.276C10.8704 17.194 11.9264 18.5788 13.4656 18.5788C14.896 18.5788 15.856 17.5929 15.8848 16.1352H14.48C14.3904 16.6914 13.9552 17.0712 13.4848 17.0022ZM13.4848 13.4423C13.9744 13.3618 14.4256 13.7722 14.4928 14.3591C14.4928 14.3668 14.496 14.3783 14.496 14.386H12.384C12.5312 13.7991 12.992 13.4117 13.504 13.4423H13.4848ZM8.3648 12.1496L7.376 15.9741L6.4096 12.1496H4.8288L4 18.3908H5.3184L5.8208 14.5088L6.7936 18.3908H7.9232L8.9312 14.4359L9.4112 18.3908H10.752L9.9232 12.1496H8.3648ZM22.4256 12C20.8928 12 20.0224 12.9015 20.0608 14.4359H21.5488C21.5488 13.7837 21.8336 13.4922 22.4256 13.4922C22.8512 13.4922 23.12 13.7032 23.12 14.0254C23.12 14.2326 23.0528 14.3131 22.7936 14.4013L21.6128 14.7926C20.464 15.1647 19.952 15.7363 19.952 16.6799C19.952 17.7962 20.6304 18.5442 21.6256 18.5442C22.2784 18.621 22.896 18.1875 23.1616 17.4701V18.4138H24.5376V14.2441C24.5184 12.7403 23.7216 12 22.4256 12ZM21.9136 17.0904C21.5488 17.0904 21.3696 16.8794 21.3696 16.5687C21.3696 16.258 21.4944 16.0969 21.8912 15.9511L23.136 15.5291V15.6404C23.1488 16.235 22.848 16.7758 22.3872 16.9907C22.2368 17.0635 22.0768 17.0942 21.9136 17.0904ZM31.584 20.0556V21.6476H33.072V26.293H34.5088V21.6514H35.9968V20.0556H31.584ZM26.4096 20.0556H24.8256L23.7056 22.3726H23.136V20.0556H21.6992V26.2968H23.136V23.907H23.6992L24.8992 26.2968H26.5216L24.9344 23.1129L26.4096 20.0556ZM13.5776 19.906C12.0448 19.906 11.1712 20.8075 11.2128 22.3419H12.7008C12.7008 21.6898 12.9856 21.3982 13.5776 21.3982C14.0032 21.3982 14.272 21.6169 14.272 21.9353C14.272 22.1386 14.2048 22.2191 13.9424 22.3074L12.7616 22.6986C11.616 23.0746 11.104 23.6423 11.104 24.5859C11.104 25.6984 11.7824 26.4503 12.7776 26.4503C13.4304 26.5346 14.0544 26.0973 14.3104 25.3685V26.3122H15.6896V22.1309C15.6672 20.6464 14.8736 19.906 13.5776 19.906ZM13.056 24.9964C12.6976 24.9964 12.5152 24.7854 12.5152 24.467C12.5152 24.1525 12.6432 23.9952 13.04 23.8648L14.2816 23.4428V23.5464C14.2976 24.3289 13.7824 24.9772 13.1328 24.9964C13.1072 24.9964 13.0816 24.9964 13.056 24.9964ZM19.1808 19.906C18.5632 19.86 17.9968 20.3011 17.776 20.9916V20.048H16.3392V28H17.776V25.3762C18.0032 26.059 18.5696 26.4848 19.1808 26.4387C20.3616 26.4387 21.1488 25.334 21.1488 23.1743C21.1488 21.0146 20.3744 19.906 19.1808 19.906ZM18.7872 24.843C18.128 24.843 17.7344 24.3059 17.7344 23.1743C17.7344 22.0427 18.128 21.498 18.7776 21.498C19.4272 21.498 19.7504 22.0388 19.7504 23.1743C19.7504 24.3098 19.4208 24.843 18.7776 24.843H18.7872ZM8.3648 20.0556L7.376 23.8763L6.4096 20.0556H4.8288L4 26.2968H5.3184L5.8176 22.4148L6.7904 26.2968H7.92L8.928 22.3457L9.408 26.2968H10.752L9.9232 20.0556H8.3648Z" fill="white"/>
<path d="M28.8576 24.9043C28.2304 24.935 27.7024 24.352 27.6768 23.6001C27.6768 23.5617 27.6768 23.5234 27.6768 23.4889H31.2224C31.2224 23.4889 31.2448 23.1666 31.2448 22.8367C31.2448 20.9494 30.3136 19.9099 28.8544 19.9099C27.3152 19.9099 26.2432 21.2563 26.2432 23.1705C26.2432 25.0846 27.2992 26.4733 28.8384 26.4733C30.2688 26.4733 31.2288 25.4836 31.2608 24.0297H29.8496C29.7664 24.5936 29.3312 24.9772 28.8576 24.9043ZM28.8576 21.3484C29.3536 21.2678 29.808 21.6859 29.872 22.2767C29.872 22.2805 29.872 22.2843 29.872 22.2882H27.7536C27.8976 21.7013 28.3616 21.31 28.8736 21.3445C28.8736 21.3484 28.8576 21.3484 28.8576 21.3484Z" fill="white"/>
</svg>
