<svg width="32" height="17" viewBox="0 0 32 17" fill="none" xmlns="http://www.w3.org/2000/svg">
<path d="M0 0C0.453928 0.200211 1.34008 0.728711 1.82622 0.987493C3.31768 1.76739 4.79807 2.56818 6.26698 3.3897C7.63893 4.1492 9.04078 4.86352 10.3922 5.65693C11.3328 6.20922 12.239 6.81893 13.1829 7.3687C14.958 8.38863 16.7458 9.38645 18.5457 10.3619C21.0068 11.7437 23.5152 13.0395 26.0664 14.247C27.6004 14.9629 29.1915 15.5496 30.8231 16.001C31.0705 16.0673 31.8615 16.1969 31.9865 16.4025C32.0055 16.5132 31.9959 16.5214 31.9493 16.6295C31.6925 16.7602 31.0722 16.506 30.7753 16.4245C27.1706 15.4355 23.6621 13.555 20.4036 11.8051C17.0006 9.97768 13.7745 8.22839 10.5376 6.14534C10.1693 5.90833 9.78448 5.6933 9.39702 5.49177C7.47973 4.54634 5.63266 3.47616 3.75671 2.45323C2.53002 1.78434 1.28542 1.14849 0.0658109 0.468726C0.0283719 0.289241 0.016718 0.182875 0 0Z" fill="white"/>
</svg>
