<svg width="24" height="15" viewBox="0 0 24 15" fill="none" xmlns="http://www.w3.org/2000/svg">
<path d="M0.818837 0.00100596C1.37977 -0.00648622 2.06243 0.029827 2.63009 0.0451942C3.89851 0.0776786 5.16666 0.119842 6.43442 0.171686L12.6807 0.352975L18.3027 0.509601C19.158 0.534593 20.0179 0.549304 20.8719 0.592124C21.7437 0.635874 21.8223 1.81406 21.9659 2.4871C22.0976 3.11223 22.2348 3.73622 22.3776 4.35894L22.9721 7.06499C23.1845 8.00108 23.4172 8.96505 23.5616 9.91279C23.6526 10.51 23.6888 11.1553 23.738 11.7607C23.8056 12.5114 23.8626 13.2629 23.9088 14.0151L23.0281 14.0154L1.16621 14.0091C1.11595 13.6955 1.07822 13.3033 1.04787 12.982C0.794392 10.2978 0.585213 7.60656 0.354377 4.92037L0.13147 2.41125C0.0798446 1.87662 0.00918829 1.34522 0.000164849 0.807865C-0.00858515 0.281662 0.331845 0.0424044 0.818837 0.00100596Z" fill="white"/>
</svg>
