<svg width="51" height="20" viewBox="0 0 51 20" fill="none" xmlns="http://www.w3.org/2000/svg">
<path d="M3.00537 0.00240273C3.03901 -0.00235508 3.01587 -0.00153415 3.0728 0.0187549C3.09643 0.145192 3.07269 0.807732 3.07073 0.994653C2.5691 1.11486 1.66184 1.19147 1.25893 1.4835C1.07826 1.61448 0.980433 1.80157 0.955895 2.02163C0.914808 2.38995 0.95753 3.57104 1.19097 3.82949C1.44413 4.10976 5.4183 6.10055 6.01373 6.40445L18.0923 12.4469L21.9007 14.3085C24.8642 15.7691 27.999 17.3765 31.2698 17.9793C32.0008 18.114 33.276 18.0652 34.0388 18.0603C35.2818 18.0601 36.5247 18.0371 37.7668 17.9916L46.0118 17.7204C46.9904 17.6818 47.9545 17.6548 48.9337 17.6454C49.4602 17.6403 49.9752 17.562 50.5052 17.6134C50.7877 17.8123 50.679 18.181 50.5743 18.4428C50.2862 18.4619 49.9978 18.4756 49.7092 18.4839C48.8337 18.5416 47.9121 18.5695 47.0325 18.6091L41.168 18.8662C39.734 18.9317 38.2995 18.9859 36.8646 19.0286C35.0223 19.0992 32.9805 19.2139 31.1568 18.9404C27.9654 18.4616 24.8361 16.883 21.9575 15.4655C19.8537 14.4092 17.7445 13.3637 15.63 12.329C12.3201 10.7307 9.03741 9.07664 5.78333 7.36755C4.64666 6.77906 3.51309 6.1845 2.38277 5.58386C1.67064 5.20794 0.819482 4.7851 0.150977 4.36308C0.120324 3.75697 -0.0565569 2.24897 0.0183157 1.75382C0.0503845 1.52944 0.131131 1.31479 0.254888 1.12492C0.762662 0.353825 2.12589 0.191293 3.00537 0.00240273Z" fill="white"/>
</svg>
