<svg width="48" height="10" viewBox="0 0 48 10" fill="none" xmlns="http://www.w3.org/2000/svg">
<path d="M0 0C0.310018 0.0778203 0.750329 0.252053 1.06021 0.361647C2.80348 0.978358 4.57634 1.62455 6.31332 2.24957C11.3527 4.05601 16.3713 5.91987 21.3681 7.84066C21.4049 6.4832 21.379 5.06887 21.3672 3.71066L38.5917 3.70809L44.2293 3.69343C44.8302 3.69261 45.4312 3.69545 46.0321 3.70191C46.3493 3.70497 46.8428 3.69758 47.1443 3.74144C47.5802 4.06191 47.2544 4.67332 47.1279 5.11153C46.8352 6.04013 46.5421 7.06109 46.2051 7.9666C45.9644 8.03064 45.6936 8.0657 45.4476 8.11749C43.0977 8.6123 40.7142 8.89208 38.3562 9.33204C37.996 9.39925 37.6031 9.55347 37.2376 9.5456C36.8216 9.53663 36.3945 9.49977 35.9783 9.47614C35.0978 9.42873 34.2176 9.37535 33.3377 9.31612C31.3869 9.20358 29.4355 9.10268 27.4835 9.01332C26.2132 8.9513 24.9426 8.89716 23.6716 8.85095C22.8071 8.82509 21.8167 8.90564 21.0135 8.59069C17.8801 7.36214 14.7774 6.05926 11.6594 4.79188L2.67813 1.13597C2.28444 0.974041 0.147317 0.142406 0 0Z" fill="white"/>
</svg>
