<svg width="20" height="14" viewBox="0 0 20 14" fill="none" xmlns="http://www.w3.org/2000/svg">
<path d="M0.640282 0C1.14926 0.166414 2.11121 0.603203 2.62456 0.824305C3.91141 1.3755 5.19449 1.9355 6.47369 2.50441L19.2162 8.09517C19.3856 9.97407 19.4289 11.9313 19.5826 13.8177L19.09 13.6034C18.056 13.1572 17.1198 12.705 16.1037 12.2425C14.061 11.3242 12.0284 10.3834 10.0064 9.42025C9.20943 9.04132 8.42056 8.63778 7.62037 8.26613L4.45845 6.83118C3.65323 6.45061 2.85004 6.06572 2.04892 5.67662C1.38961 5.36189 0.627648 5.06663 0 4.7128L0.640282 0Z" fill="white"/>
</svg>
