<svg width="46" height="24" viewBox="0 0 46 24" fill="none" xmlns="http://www.w3.org/2000/svg">
<path d="M0 0C1.61494 0.840273 3.22538 1.77882 4.82121 2.66038L18.1158 10.034C22.9307 12.6494 27.731 15.4679 33.1381 16.6633C35.3263 17.1471 37.5506 17.4124 39.7899 17.4901C40.3358 17.509 40.8817 17.5253 41.4274 17.5452C42.7586 17.6065 44.0906 17.6476 45.423 17.6684C45.2971 17.8962 45.1195 18.1692 44.9731 18.3864C44.3835 19.2614 43.8816 20.2221 43.153 20.9874C42.0479 21.9914 40.4017 22.9649 38.916 23.1465C35.3281 23.5851 31.378 21.7912 28.2509 20.2864C26.5767 19.4925 24.9284 18.645 23.3085 17.7455C18.9873 15.3567 14.721 12.87 10.5128 10.2874C8.23787 8.91554 5.97785 7.51898 3.7332 6.09804C2.95221 5.59989 1.76611 4.89983 1.0428 4.37199C0.714919 3.17499 0.467529 1.95836 0.17331 0.753046C0.118442 0.528335 0.0122773 0.218203 0 0Z" fill="white"/>
</svg>
