<svg width="7" height="6" viewBox="0 0 7 6" fill="none" xmlns="http://www.w3.org/2000/svg">
<path d="M4.71369 0.00741196C5.05598 0.0015604 5.53925 -0.0465109 5.78507 0.205981C6.04828 0.476247 6.09635 0.704677 6.0998 1.05533L6.10882 3.22615C6.11254 3.73568 6.14366 4.29273 6.07677 4.79421C6.01459 5.01619 5.68729 5.39544 5.46345 5.42793C4.95502 5.50175 4.38425 5.47152 3.87287 5.46927C3.07476 5.46419 2.27659 5.46452 1.47848 5.47026C1.07932 5.4713 0.604796 5.51368 0.284054 5.22679C0.128796 5.08788 -0.00447841 4.82839 0.000115339 4.61658C0.00602159 4.34593 1.20543 0.944975 1.3748 0.568069C1.42828 0.449124 1.49336 0.35041 1.58753 0.25941C1.70828 0.142762 1.85331 0.0833188 2.01623 0.049686C2.35731 -0.0207515 2.74291 0.0110215 3.09067 0.0109668L4.71369 0.00741196Z" fill="white"/>
</svg>
