<svg width="33" height="12" viewBox="0 0 33 12" fill="none" xmlns="http://www.w3.org/2000/svg">
<path d="M11.3272 0.0148752C11.4003 0.00492205 11.5654 0.00328125 11.6459 0C11.6407 0.510945 11.6382 1.02189 11.6383 1.53284C11.6376 1.8772 11.6249 2.3683 11.6717 2.70156L21.0823 5.68416C22.9424 6.30476 24.7978 6.93957 26.6482 7.58866L33.0099 9.74302C32.2183 9.93398 31.1832 10.1158 30.3695 10.2826L22.1073 11.9179C21.1405 11.5267 20.0911 11.0481 19.125 10.6298C16.6423 9.56342 14.1711 8.47087 11.7115 7.3523C9.91807 6.56212 8.11666 5.79042 6.30744 5.03727C5.26837 4.5926 4.2239 4.16084 3.17417 3.7421C3.0742 4.81797 2.85507 6.22896 2.68444 7.30029C1.85134 7.44193 0.939039 7.51007 0.0832345 7.65084C0.0410705 5.40334 0.0648047 3.17368 0 0.919298C1.3883 0.857665 2.87016 0.703281 4.25972 0.58696L11.3272 0.0148752Z" fill="white"/>
</svg>
