<svg width="14" height="14" viewBox="0 0 14 14" fill="none" xmlns="http://www.w3.org/2000/svg">
<path d="M13.7678 7.28577C13.8602 7.28264 13.9471 7.22812 13.9765 7.14055L13.9769 7.13945C14.0093 7.04142 14.0059 6.94739 13.9772 6.86519C13.9459 6.77575 13.8604 6.71732 13.7657 6.71408C12.7884 6.6806 11.8643 6.43923 11.0361 6.0315C9.67997 5.41361 8.58589 4.3194 7.96813 2.96316C7.56587 2.14587 7.32563 1.23504 7.28731 0.272008C7.28127 0.12012 7.15534 0.000644835 7.00333 1.41907e-05L6.99995 0L6.99666 1.41907e-05C6.84465 0.000663759 6.71872 0.120142 6.71268 0.272032C6.67433 1.23568 6.4338 2.14702 6.03107 2.9647C5.41325 4.32018 4.31957 5.41375 2.96402 6.03143C2.14357 6.4354 1.22887 6.67608 0.261657 6.71309C0.140048 6.71774 0.031703 6.80045 0.00789194 6.9198C-0.00260855 6.97243 -0.0030065 7.02873 0.0089686 7.08685L0.00944955 7.08915C0.0340003 7.20474 0.142352 7.28233 0.260436 7.28683L0.234286 7.28586C1.21156 7.31935 2.13574 7.56072 2.96388 7.96845C4.32003 8.58634 5.41411 9.68055 6.03186 11.0368C6.43413 11.8541 6.67437 12.7649 6.71269 13.7279C6.71873 13.8798 6.84466 13.9993 6.99667 13.9999L7.00005 13.9999L7.00334 13.9999C7.15535 13.9993 7.28127 13.8798 7.28732 13.7279C7.32567 12.7643 7.5662 11.8529 7.96893 11.0352C8.58675 9.67977 9.68043 8.58619 11.036 7.96852C11.8564 7.56455 12.7711 7.32387 13.7383 7.28686L13.7678 7.28577Z" fill="white"/>
</svg>
