<svg width="5" height="5" viewBox="0 0 5 5" fill="none" xmlns="http://www.w3.org/2000/svg">
<path d="M2.92614 0.153086C2.6884 0.0525366 2.43563 0.00364258 2.17512 0H2.16447C1.87419 0.0036438 1.59252 0.0580786 1.32749 0.170021C1.06976 0.278453 0.838291 0.434177 0.639517 0.63222C0.440598 0.830264 0.284001 1.06115 0.174397 1.31829C0.0608569 1.58435 0.00262695 1.86748 0.00116699 2.15936V2.16023V2.16155L0.000583496 2.16185L0 2.16476V2.16505L0.00072998 2.17017C0.00204102 2.46628 0.0611523 2.75349 0.175425 3.02363C0.286047 3.28472 0.444104 3.51955 0.644775 3.72138C0.845447 3.92322 1.07925 4.0823 1.33961 4.19453C1.60902 4.31055 1.89536 4.37097 2.19118 4.37419L2.19979 4.37433H2.20213L2.20738 4.37389L2.21132 4.37346H2.21176L2.2157 4.37389C2.5413 4.37024 2.85347 4.29713 3.1436 4.15629C3.41739 4.02319 3.65688 3.8377 3.85566 3.60434L3.31027 3.16709C3.17542 3.32384 3.0143 3.44789 2.83172 3.53749C2.63485 3.63426 2.42323 3.68563 2.20315 3.68563H2.20271C2.03269 3.68563 1.86617 3.65527 1.70797 3.5988C1.55487 3.54421 1.41199 3.46598 1.28386 3.36543C1.15659 3.2659 1.04699 3.14754 0.957236 3.01342C0.866316 2.87711 0.798308 2.72766 0.755398 2.56975L0.748098 2.5429L4.10667 2.54289L4.11091 1.94249C4.11091 1.68022 4.05968 1.42585 3.95854 1.1865C3.86076 0.955189 3.72109 0.747509 3.54304 0.569169C3.36485 0.390972 3.15717 0.250873 2.92614 0.153086ZM0.737009 1.85157L0.743284 1.82472C0.78123 1.66768 0.844714 1.51912 0.931987 1.38338C1.01766 1.25014 1.1239 1.13236 1.24795 1.0337C1.37288 0.93417 1.5124 0.856531 1.66258 0.803121C1.81771 0.748098 1.98073 0.719932 2.14739 0.719496C2.4549 0.720226 2.74926 0.833914 2.97576 1.03969C3.2011 1.2443 3.34237 1.52465 3.37361 1.82749L3.37609 1.85156L0.737009 1.85157Z" fill="white"/>
</svg>
