<svg width="36" height="33" viewBox="0 0 36 33" fill="none" xmlns="http://www.w3.org/2000/svg">
<path d="M35.7158 -7.12423C30.999 1.42428 22.3544 10.1609 13.6127 16.7025C10.2087 19.2499 6.25661 20.9583 2.07543 21.7256C-1.11456 22.311 -2.5052 23.2417 -7.06405 27.0731C-8.64018 28.7168 -9.48879 30.2427 -10.8505 32.8687C-10.8533 32.7784 -11.2227 24.6777 -11.2227 24.6777C-7.59592 19.7348 -2.05075 17.5909 2.14942 13.3787C5.61283 9.76055 8.03013 5.22327 11.2247 1.37144C12.8198 -0.656941 17.876 -5.23216 18.8282 -6.36004C18.8395 -6.35986 24.0608 -6.59678 24.0608 -6.59678C21.6741 -3.57229 19.243 -0.686101 14.1997 5.28498C13.593 6.00339 8.58116 11.166 6.7492 14.0063C6.15274 14.9311 5.74872 15.8715 6.19882 16.2223C6.67562 16.594 7.34701 15.9759 8.43276 15.2972C14.6631 11.4027 19.0185 7.72646 24.0638 1.43924C32.2311 -8.73835 25.9709 -7.83348 35.7158 -7.12423Z" fill="#303030"/>
</svg>
