<svg width="40" height="19" viewBox="0 0 40 19" fill="none" xmlns="http://www.w3.org/2000/svg">
<path d="M16.7486 12.583L13.2229 13.5282L16.1281 6.35897C16.1919 6.19893 16.1139 6.01761 15.954 5.95379C15.8922 5.92917 15.8243 5.92494 15.76 5.94168L9.24602 7.68788C8.67105 7.84201 8.3298 8.43335 8.48386 9.00858C8.63792 9.5838 9.22899 9.92522 9.80396 9.77109L12.7331 8.98586L9.81179 16.1624C9.74564 16.3197 9.8194 16.5008 9.97657 16.567C10.041 16.5941 10.1127 16.5985 10.1799 16.5796L17.3073 14.669C17.8735 14.4852 18.1836 13.8769 17.9998 13.3105C17.8294 12.7852 17.29 12.4736 16.7501 12.5887L16.7486 12.583ZM37.7866 0.0370036C37.2115 0.191163 36.8703 0.782482 37.0244 1.35771L37.96 4.85123L31.1359 1.89232C30.9803 1.82229 30.7976 1.89172 30.7276 2.04738C30.6981 2.11306 30.6925 2.18704 30.7117 2.25648L32.635 9.43774C32.7891 10.013 33.3801 10.3543 33.9551 10.2001C34.53 10.046 34.8713 9.45477 34.7173 8.87954L33.7816 5.38602L40.6065 8.34775C40.7649 8.41532 40.9479 8.34158 41.0154 8.18318C41.0426 8.11921 41.0478 8.04797 41.0299 7.98079L39.1066 0.799538C38.9525 0.224313 38.3615 -0.117127 37.7866 0.0370036ZM24.6772 10.6688C22.2967 11.3069 20.1794 10.5289 19.8785 9.40564C19.5777 8.28242 21.0226 6.54951 23.4031 5.91137C25.7836 5.27323 27.9009 6.05121 28.2018 7.17442C28.5026 8.29764 27.0634 10.0291 24.6772 10.6688ZM22.8459 3.83097C19.399 4.75498 17.1394 7.49989 17.7991 9.96308C18.4588 12.4263 21.7875 13.6732 25.2344 12.7492C28.6813 11.8252 30.9408 9.08019 30.2811 6.61701C29.6214 4.15382 26.2928 2.90697 22.8459 3.83097ZM4.18502 16.1652C2.87077 16.5192 1.51849 15.7402 1.1646 14.4253C0.810836 13.1104 1.58943 11.7575 2.9037 11.4036C4.21795 11.0496 5.57022 11.8285 5.92409 13.1434L5.92484 13.1462C6.27683 14.4604 5.49825 15.8115 4.18502 16.1652ZM2.35291 9.32454C-0.110627 9.98323 -1.57399 12.5153 -0.915507 14.9799C-0.257088 17.4446 2.27379 18.9086 4.73732 18.2499C7.20083 17.5911 8.66422 15.0591 8.00571 12.5944C8.00521 12.5926 8.0047 12.5907 8.0042 12.5888C7.34464 10.1262 4.8145 8.66466 2.35291 9.32454Z" fill="white"/>
</svg>
