<svg width="28" height="35" viewBox="0 0 28 35" fill="none" xmlns="http://www.w3.org/2000/svg">
<path d="M8.04042 40.1228C10.2675 37.8607 18.07 32.6059 16.8267 31.8857C16.7148 31.8208 16.5765 31.8209 16.4601 31.8772C12.1749 33.9497 8.17442 36.8944 5.16369 40.6282C5.086 40.7245 4.96918 40.7805 4.84546 40.7792C4.14047 40.7719 1.86134 40.7463 0.399205 40.7301C0.00854613 40.7258 -0.14798 40.2235 0.171015 39.9978C0.418576 39.8227 0.623448 39.6739 0.739026 39.5881C4.27006 36.8646 8.20337 34.8204 12.0143 32.5983C16.5831 29.9344 20.5443 26.3428 23.6446 22.0569C25.0706 20.0856 26.5246 18.1387 28.2277 16.4139C28.246 16.3953 28.2662 16.3787 28.2877 16.364C33.0424 13.1312 34.3577 3.46304 40.9163 0.0465705C41.1873 -0.0945827 41.5104 0.102159 41.5077 0.407788C41.4862 2.89493 38.2006 4.91712 37.9851 7.46925C37.983 7.49434 37.9788 7.51932 37.9721 7.54361C35.4224 16.8189 26.4371 23.1101 22.1729 27.9525C19.64 30.8288 16.6364 36.5513 13.1842 40.3719C13.1463 40.4138 13.1179 40.4633 13.1002 40.5171C12.9276 41.0433 9.83728 40.8616 8.31445 40.8075C7.9646 40.7951 7.79477 40.3723 8.04042 40.1228Z" fill="#303030"/>
</svg>
