<svg width="33" height="16" viewBox="0 0 33 16" fill="none" xmlns="http://www.w3.org/2000/svg">
<path d="M0 0C0.104995 0.0334141 0.559245 0.290609 0.681702 0.356562L2.21887 1.17764L8.39907 4.42783C11.6905 6.12965 15.0431 7.70831 18.3728 9.33308C22.7637 11.4757 27.1103 13.9472 31.9438 14.9425C32.0359 14.9615 32.1429 15.0141 32.1886 15.0994C32.2005 15.206 32.1856 15.225 32.1465 15.3229C32.1287 15.3312 32.0344 15.373 32.0227 15.3709C27.4109 14.4986 23.1828 12.11 19.0052 10.0918L13.9653 7.63957C13.2139 7.27546 12.4575 6.93082 11.7089 6.55802C9.8438 5.62915 7.994 4.66998 6.16016 3.68085L2.37624 1.67962C1.68048 1.31879 0.715586 0.87385 0.0824032 0.458554C0.0390415 0.304608 0.022132 0.157664 0 0Z" fill="white"/>
</svg>
