<svg width="2" height="9" viewBox="0 0 2 9" fill="none" xmlns="http://www.w3.org/2000/svg">
<path d="M0.811344 0.0100508C1.1935 -0.00449603 1.55777 -0.000121005 1.9402 0.00392587L1.93643 8.90197C1.44162 8.89442 1.07652 8.92537 0.618734 8.72866C0.347375 8.58215 0.190039 8.46441 0 8.22231C0.366898 8.22663 0.901633 8.36253 0.895234 7.84294C0.89075 7.47796 0.889711 7.11166 0.885117 6.74635C0.875219 6.05083 0.870953 5.35526 0.872484 4.65975L0.877515 2.06078C0.878007 1.58751 0.882109 1.11671 0.868656 0.643552C0.856898 0.23077 0.475289 0.300114 0.166414 0.303888C0.412727 0.148685 0.530906 0.0859571 0.811344 0.0100508Z" fill="#303030"/>
</svg>
