<svg width="13" height="8" viewBox="0 0 13 8" fill="none" xmlns="http://www.w3.org/2000/svg">
<path d="M10.8546 0.0026803L10.9215 0C10.9489 0.0259766 10.9635 0.0404147 10.9723 0.0792975C11.1182 0.750423 11.2638 1.414 11.4443 2.07709C11.7299 3.12594 11.9591 4.19847 12.2008 5.25842C11.8365 5.35013 11.3649 5.4297 10.9896 5.50277C10.2522 5.64298 9.51639 5.79113 8.78227 5.94721C6.23777 6.49868 3.6995 7.07848 1.16791 7.68649C0.904095 7.74479 0.608343 7.82994 0.344531 7.89939C0.349179 7.62743 0.332666 7.28284 0.305705 7.01198C0.147056 5.41915 0.14443 3.7905 0 2.20194C0.712469 2.00681 1.74092 1.83663 2.48194 1.68224L8.75142 0.430501C9.44136 0.289735 10.1745 0.161493 10.8546 0.0026803Z" fill="white"/>
</svg>
