<svg width="23" height="10" viewBox="0 0 23 10" fill="none" xmlns="http://www.w3.org/2000/svg">
<path d="M0 0C0.863953 0.00875 1.7576 0.0609232 2.62664 0.0826888L11.6213 0.344422L17.2731 0.521719C18.0834 0.550211 18.9013 0.554751 19.7101 0.599321C19.8697 0.602821 19.9708 0.648978 20.102 0.738665C20.4768 0.994985 20.5313 1.65413 20.616 2.07791C20.7065 2.54242 20.8045 3.00541 20.9098 3.4668L21.7803 7.32402C21.9437 8.05416 22.1612 8.91964 22.2882 9.64726C21.5501 9.61341 20.6507 9.63889 19.8964 9.64256L15.8442 9.65196L0.810578 9.63085C0.802101 9.29398 0.774757 8.94687 0.746703 8.61066C0.507554 5.74284 0.205297 2.87022 0 0Z" fill="#303030"/>
</svg>
