<svg width="4" height="5" viewBox="0 0 4 5" fill="none" xmlns="http://www.w3.org/2000/svg">
<path d="M3.16666 2.53955C3.09544 2.3974 2.99766 2.2789 2.87302 2.18403C2.74839 2.08932 2.60303 2.01357 2.43695 1.95739C2.27087 1.90105 2.09603 1.85508 1.91199 1.81947C1.77569 1.79568 1.64361 1.76605 1.51605 1.73073C1.3885 1.69498 1.27583 1.65353 1.17819 1.6061C1.08012 1.55867 1.00292 1.50394 0.946584 1.44177C0.890249 1.37945 0.862082 1.304 0.862082 1.21497C0.862082 1.12012 0.887332 1.03561 0.93783 0.961472C0.988179 0.887628 1.05195 0.826771 1.12901 0.779196C1.20607 0.731906 1.29349 0.696444 1.39127 0.672651C1.48905 0.64901 1.58567 0.637047 1.68053 0.637047C1.69877 0.637047 1.71687 0.637484 1.73467 0.638214C2.09384 0.65105 2.41126 0.834208 2.60507 1.10917L2.60552 1.10741L3.15484 0.738762L3.15265 0.737158L3.15484 0.73584C2.84048 0.290432 2.32165 0 1.73467 0H1.72562C1.53021 1.22e-06 1.34062 0.0267151 1.15688 0.0799829C0.973142 0.133251 0.807207 0.210453 0.659219 0.311154C0.510942 0.411854 0.392441 0.539119 0.303562 0.69338C0.21468 0.847491 0.170317 1.02539 0.170317 1.2268C0.170317 1.44031 0.210156 1.61501 0.290427 1.75131C0.370405 1.88777 0.477087 1.99884 0.610479 2.08464C0.743723 2.17075 0.899448 2.24037 1.07735 2.29364C1.25511 2.34705 1.44191 2.39433 1.63748 2.43593C1.75014 2.45972 1.85975 2.48628 1.96658 2.51591C2.07312 2.54553 2.16798 2.58552 2.25102 2.63602C2.33421 2.68637 2.40076 2.74723 2.45125 2.8183C2.50146 2.88937 2.52685 2.98117 2.52685 3.09369C2.52685 3.20636 2.50014 3.30268 2.44673 3.38266C2.3936 3.46263 2.32253 3.52948 2.23365 3.58274C2.14492 3.63601 2.04583 3.67455 1.93637 3.69819C1.83567 3.72008 1.73643 3.73175 1.63821 3.73351L1.63806 3.73248H1.63091L1.63018 3.73335L1.63003 3.73321C1.18958 3.73321 0.797581 3.51926 0.556919 3.19016L0 3.62303C0.394485 4.0807 0.980735 4.37171 1.63383 4.37303V4.37084C1.83523 4.36894 2.02831 4.34515 2.21833 4.30006C2.41652 4.25233 2.5953 4.17687 2.75233 4.07311C2.90937 3.96949 3.0359 3.83464 3.13062 3.6687C3.22548 3.50291 3.2732 3.30122 3.2732 3.06406C3.2732 2.85653 3.23788 2.68184 3.16666 2.53955Z" fill="white"/>
</svg>
