<svg width="40" height="40" viewBox="0 0 40 40" fill="none" xmlns="http://www.w3.org/2000/svg">
<path d="M0 12C0 5.37258 5.37258 0 12 0H28C34.6274 0 40 5.37258 40 12V28C40 34.6274 34.6274 40 28 40H12C5.37258 40 0 34.6274 0 28V12Z" fill="#303030"/>
<path fill-rule="evenodd" clip-rule="evenodd" d="M23.7059 8.01392C23.7059 8.01392 23.9424 8.00135 24.2029 8.00008C24.4216 7.99902 24.6576 8.00862 24.7801 8.01392C26.2934 8.07937 27.9028 8.58501 29.1075 10.1198C30.0665 11.3334 30.4732 13.3917 30.2353 15.2597C30.0589 16.6399 29.6445 17.9248 29.1995 19.1503C28.3018 21.5656 27.1893 23.7786 26.1381 26.0511C25.9463 26.4199 25.8005 26.8839 25.8159 27.3717C25.8389 27.7525 26.0307 28.0618 26.2532 28.2046C26.6829 28.4782 27.1662 28.4188 27.6189 28.3831C29.0614 28.1451 30.4501 27.4669 31.8235 26.7888C31.9233 26.6936 31.9617 26.8602 32 26.9791C30.5422 28.4783 28.9693 29.7394 27.3197 30.6675C26.4067 31.1434 25.4399 31.5955 24.4655 31.417C23.9591 31.3338 23.445 30.8697 23.2839 30.0726C23.0844 29.0494 23.1611 27.9072 23.445 26.9315C23.8823 25.4086 24.5652 24.1118 25.2021 22.7911C26.2685 20.6257 27.3657 18.4721 28.202 16.0569C28.486 15.2122 28.7775 14.1651 28.5013 13.2252C28.2481 12.3567 27.6803 11.845 27.1432 11.4524C26.1918 10.798 25.1714 10.3935 24.1663 9.95327C24.0128 10.1119 23.8619 10.2666 23.7136 10.4173C24.0588 10.8337 24.4118 11.2501 24.7571 11.6666C23.4374 12.0354 22.1177 12.4518 20.8133 12.9634C18.8338 13.7368 16.9003 14.76 14.9821 15.8308C15.1663 16.4139 15.3581 16.9968 15.5346 17.5798C15.0972 18.3294 14.6675 19.079 14.2379 19.8167C15.2737 20.3045 16.4016 20.3758 17.4604 20.007C18.3658 19.6857 19.2251 19.0195 19.9156 18.0557C19.7238 17.6869 19.486 17.3894 19.2328 17.1515C20.0767 17.1872 20.844 18.3175 20.844 19.6501C20.6803 19.6501 20.5167 19.65 20.353 19.65C20.3172 19.3645 20.266 19.0829 20.1995 18.8053C19.2404 20.1497 18.0051 20.9945 16.7238 21.2087C15.5959 21.4109 14.445 21.1729 13.3785 20.5543C13.4553 21.5696 13.5269 22.5848 13.5934 23.6001C12.9872 23.9689 12.4271 24.4925 11.9284 25.1349C11.5294 25.6703 11.1304 26.289 10.9847 27.098C10.8312 27.8119 11.0767 28.621 11.4757 29.0017C11.9591 29.4657 12.5269 29.6918 13.0946 29.8108C13.8312 29.9655 14.5831 29.9535 15.3274 29.8703C16.7852 29.7037 18.2353 29.2754 19.6547 28.74C19.7928 28.6567 19.8619 29.0136 19.7161 29.0731C18.5806 29.9773 17.399 30.7388 16.156 31.2266C14.9974 31.7025 13.8005 31.9405 12.5959 32C11.3759 31.9405 10.0716 31.5717 9.10486 30.3343C8.38363 29.4301 8 27.9904 8 26.5627V26.4913C8.02303 24.9802 8.35295 23.5168 8.82864 22.2199C9.45012 20.3758 10.2174 18.6506 11.1228 17.1158C12.688 14.4268 14.6522 12.3567 16.7621 10.8575C18.9565 9.32268 21.2967 8.21615 23.7059 8.01392Z" fill="white"/>
</svg>
