<svg width="35" height="20" viewBox="0 0 35 20" fill="none" xmlns="http://www.w3.org/2000/svg">
<path d="M27.764 5.596C26.332 5.596 25.036 6.028 23.932 6.772V0H20.876V12.48C20.876 16.276 23.964 19.332 27.744 19.332C31.524 19.332 34.648 16.296 34.648 12.444C34.652 8.596 31.596 5.596 27.764 5.596ZM13.896 13.364L11.1 6.08H8.96L6.148 13.364L3.332 6.08H0L4.92 18.888H7.06L10.012 11.26L12.98 18.888H15.12L20.024 6.08H16.708L13.896 13.364ZM27.748 16.28C25.676 16.28 23.932 14.624 23.932 12.464C23.932 10.304 25.572 8.668 27.764 8.668C29.956 8.668 31.596 10.376 31.596 12.464C31.596 14.556 29.852 16.28 27.748 16.28Z" fill="white"/>
</svg>
