<svg width="16" height="3" viewBox="0 0 16 3" fill="none" xmlns="http://www.w3.org/2000/svg">
<path d="M10.8816 0.0201129C11.0325 0.00212069 11.235 -0.0153794 11.3818 0.0225737C12.0393 0.192542 12.7404 0.452582 13.3827 0.675215L15.1305 1.30029C15.4309 1.40551 15.7077 1.48147 16.0047 1.60233C14.7906 1.64707 13.3552 1.79434 12.1391 1.89376L4.99149 2.4717C4.8294 2.48953 4.70794 2.50774 4.55055 2.45518C3.86356 2.22593 3.17559 1.93675 2.49457 1.68502C2.00599 1.50395 1.51637 1.32578 1.02572 1.1505C0.833437 1.08171 0.0528828 0.840316 0 0.70037C0.164828 0.623972 4.83574 0.422394 5.31945 0.394175C7.17429 0.281902 9.02836 0.157269 10.8816 0.0201129Z" fill="white"/>
</svg>
