<svg width="4" height="5" viewBox="0 0 4 5" fill="none" xmlns="http://www.w3.org/2000/svg">
<path d="M2.87317 2.18402C2.74854 2.08917 2.60318 2.01357 2.43709 1.95738C2.27101 1.90105 2.09617 1.85508 1.91214 1.81946C1.77568 1.79582 1.64375 1.76604 1.51634 1.73073C1.38864 1.69497 1.27598 1.65367 1.17804 1.60638C1.08012 1.55881 1.00306 1.50394 0.946729 1.44162C0.890537 1.3796 0.862224 1.304 0.862224 1.21497C0.862224 1.12011 0.887473 1.03561 0.937825 0.961615C0.98832 0.88762 1.05209 0.826904 1.12916 0.779329C1.20621 0.732047 1.29363 0.696434 1.39141 0.672651C1.48934 0.649001 1.58581 0.63718 1.68052 0.63718C1.69877 0.63718 1.71687 0.637474 1.73467 0.638204C2.09398 0.65105 2.41126 0.834208 2.60522 1.1093L3.15499 0.738761C2.84062 0.290272 2.32194 0.000141604 1.73467 0C1.53006 0 1.34077 0.0267053 1.15688 0.0799732C0.973142 0.133241 0.807495 0.210444 0.659219 0.311145C0.511086 0.411846 0.392437 0.53926 0.303704 0.693372C0.214824 0.847634 0.170313 1.02539 0.170313 1.22694C0.170313 1.4403 0.210303 1.615 0.290422 1.75131C0.370547 1.88777 0.477229 1.99869 0.61062 2.08464C0.743867 2.17074 0.89959 2.24036 1.07735 2.29364C1.25525 2.34704 1.44191 2.39433 1.63762 2.43592C1.75029 2.45972 1.85989 2.48628 1.96658 2.5159C2.07326 2.54552 2.16812 2.58566 2.25116 2.63602C2.3342 2.68636 2.4009 2.74722 2.4514 2.81829C2.50175 2.88937 2.52685 2.98117 2.52685 3.09383C2.52685 3.20635 2.50014 3.30268 2.44702 3.38265C2.3936 3.46278 2.32282 3.52947 2.2338 3.58274C2.14492 3.63616 2.04582 3.67454 1.93651 3.69818C1.83581 3.72007 1.73643 3.73175 1.63835 3.73365C1.18958 3.7332 0.797722 3.51925 0.557061 3.1903L0 3.62317C0.394631 4.0807 0.980884 4.3717 1.63397 4.37302C1.83552 4.36893 2.02831 4.34529 2.21847 4.30005C2.41681 4.25247 2.59544 4.17687 2.75248 4.07325C2.90951 3.96949 3.0359 3.83463 3.13076 3.6687C3.22562 3.50291 3.27334 3.30122 3.27334 3.06406C3.27334 2.85667 3.23803 2.68184 3.16681 2.53955C3.09559 2.3974 2.9978 2.27889 2.87317 2.18402Z" fill="white"/>
</svg>
