<svg width="27" height="3" viewBox="0 0 27 3" fill="none" xmlns="http://www.w3.org/2000/svg">
<path d="M0 0.0113996C0.409773 -0.0171473 1.01478 0.0152271 1.43872 0.0292271L3.87024 0.122687L12.2213 0.550891L14.6707 0.705711C14.9234 0.720641 15.6504 0.795072 15.8729 0.753236C16.5838 0.619744 17.4758 0.377751 18.1684 0.179454C18.7669 0.361017 19.3958 0.487346 19.996 0.666338C22.0662 1.28354 24.1499 1.79585 26.2441 2.32293C26.3694 2.35853 26.4942 2.39561 26.6187 2.43406C26.0497 2.46802 25.2679 2.45314 24.6852 2.4573L20.7212 2.46714L10.1392 2.47212L7.12584 2.4812C6.88844 2.48382 5.67339 2.5337 5.51272 2.47452C4.41963 2.07159 3.09422 1.42283 2.03831 0.937148C1.3271 0.610008 0.642031 0.355712 0 0.0113996Z" fill="white"/>
</svg>
