<svg width="40" height="40" viewBox="0 0 40 40" fill="none" xmlns="http://www.w3.org/2000/svg">
<g clip-path="url(#clip0_58_137)">
<path d="M0 18.78C0 12.204 0 8.92 1.28 6.408C2.404 4.2 4.2 2.404 6.408 1.28C8.92 0 12.204 0 18.78 0H21.224C27.796 0 31.08 0 33.592 1.28C35.8 2.404 37.596 4.2 38.72 6.408C40 8.92 40 12.204 40 18.78V21.224C40 27.796 40 31.084 38.72 33.596C37.596 35.8 35.8 37.596 33.592 38.72C31.08 40 27.796 40 21.22 40H18.776C12.204 40 8.916 40 6.404 38.72C4.2 37.596 2.404 35.8 1.28 33.592C0 31.08 0 27.796 0 21.22V18.78Z" fill="#303030"/>
<path d="M30.4398 14.116C29.0078 14.116 27.7118 14.548 26.6078 15.292V8.52002H23.5518V21C23.5518 24.796 26.6398 27.852 30.4198 27.852C34.1998 27.852 37.3238 24.816 37.3238 20.964C37.3278 17.116 34.2718 14.116 30.4398 14.116ZM16.5718 21.884L13.7758 14.6H11.6358L8.82378 21.884L6.00778 14.6H2.67578L7.59578 27.408H9.73578L12.6878 19.78L15.6558 27.408H17.7958L22.6998 14.6H19.3838L16.5718 21.884ZM30.4238 24.8C28.3518 24.8 26.6078 23.144 26.6078 20.984C26.6078 18.824 28.2478 17.188 30.4398 17.188C32.6318 17.188 34.2718 18.896 34.2718 20.984C34.2718 23.076 32.5278 24.8 30.4238 24.8Z" fill="white"/>
</g>
<defs>
<clipPath id="clip0_58_137">
<rect width="40" height="40" fill="white"/>
</clipPath>
</defs>
</svg>
