<svg width="7" height="6" viewBox="0 0 7 6" fill="none" xmlns="http://www.w3.org/2000/svg">
<path d="M0.821943 0.0185849C1.49624 0.0210459 2.17048 0.0183109 2.84473 0.0104906C3.23634 0.00770156 4.06634 -0.0522359 4.37707 0.148631C4.5098 0.234873 4.61873 0.353055 4.69393 0.492344C4.90502 0.88943 5.23845 1.91345 5.41919 2.38448C5.66233 3.10816 6.01113 3.82741 6.19576 4.56716C6.317 5.05306 5.90022 5.45376 5.45222 5.52862L2.54143 5.51134C2.02162 5.50938 1.48191 5.52584 0.974849 5.50249C0.179748 5.44102 -0.0111118 4.92045 0.00414606 4.22903C0.0297945 3.06501 -0.0313463 1.90875 0.0241615 0.748008C0.0447787 0.316195 0.425131 0.0726709 0.821943 0.0185849Z" fill="white"/>
</svg>
