<svg width="26" height="12" viewBox="0 0 26 12" fill="none" xmlns="http://www.w3.org/2000/svg">
<path d="M0 0C0.223601 0.0247734 1.71117 0.725045 2.00063 0.853561L10.6502 4.78379C11.2202 5.03863 11.8112 5.257 12.3824 5.50938C15.5295 6.90364 18.6653 8.32333 21.7895 9.76845C22.5606 10.127 23.365 10.4542 24.1374 10.8152C24.5125 10.9905 24.892 11.1433 25.2577 11.3422C24.9129 11.3701 22.0382 11.3722 21.8953 11.3226C21.4549 11.1698 21.0204 10.8872 20.6058 10.6712C19.8592 10.2822 19.1055 9.9108 18.3626 9.51388L11.7121 6.00157L3.75949 1.93036L1.21037 0.63886C0.904909 0.482454 0.265388 0.176969 0 0Z" fill="white"/>
</svg>
