<svg width="46" height="20" viewBox="0 0 46 20" fill="none" xmlns="http://www.w3.org/2000/svg">
<path d="M0 14.7659C0.698064 14.2225 1.39949 13.6834 2.10419 13.1485L12.4466 5.35374C13.9032 4.24949 15.3333 3.1039 16.8298 2.05324C17.0605 1.89126 17.7566 1.29353 17.9559 1.24053C18.5461 1.08347 19.438 0.961134 20.0452 0.844431C22.7705 0.320689 25.5259 -0.0441859 28.306 0.00432191C29.2551 0.0231891 30.5339 0.137267 31.4832 0.253861C34.1932 0.586744 36.9158 1.11404 39.5798 1.71424C39.8987 1.78604 40.5677 1.90389 40.8349 2.0242C41.0467 2.11963 41.5344 2.74712 41.6998 2.96106C42.3503 3.80248 42.9898 4.90684 43.3531 5.91238C43.7449 6.99661 44.0193 8.32546 44.2843 9.46362C44.5755 10.6889 44.844 11.9196 45.0895 13.1549C45.2211 13.8143 45.4113 14.6851 45.4802 15.3459C45.6176 16.6617 45.699 18.0662 45.7672 19.3904L44.6954 19.3825C44.6448 18.0623 44.5 16.6869 44.3542 15.3728C44.2699 14.6124 44.0467 13.8408 43.9028 13.0901C43.6686 11.8297 43.4046 10.6253 43.1298 9.37574C42.988 8.71489 42.8415 8.05514 42.6905 7.39638C42.5699 6.87345 42.5151 6.29612 42.091 5.94158C41.93 5.80699 41.7575 5.7026 41.5416 5.68925C41.1178 5.65464 40.6861 5.64419 40.2606 5.63008L38.1363 5.56194L30.6209 5.35921L24.6404 5.173L22.6078 5.10207C21.9483 5.08113 20.9648 4.93057 20.5259 5.48106C20.4011 5.63763 20.294 5.90975 20.2933 6.11406C20.3069 6.57683 20.3587 7.06672 20.399 7.52757L20.6382 10.2566L21.4295 19.3804L19.9803 19.3864L18.5064 2.59071C18.3562 2.43824 18.2645 2.34746 18.098 2.21556C17.2741 2.73438 16.4162 3.35032 15.6096 3.90124L9.43729 8.1906L2.94496 12.7258C1.99454 13.3976 0.966525 14.0798 0.049755 14.7807L0 14.7659Z" fill="white"/>
</svg>
