<svg width="2" height="9" viewBox="0 0 2 9" fill="none" xmlns="http://www.w3.org/2000/svg">
<path d="M0.00377512 0.0150445C0.698306 0.0018648 1.16222 -0.0759004 1.7559 0.31424C1.0873 0.341311 0.94932 0.386482 0.948937 1.07582C0.948171 2.50961 0.94254 3.94391 0.936634 5.37765L0.932752 7.00673C0.932916 7.31818 0.926077 7.6544 0.952655 7.9636C0.982132 8.30638 1.54859 8.26799 1.79244 8.27269C1.82875 8.27647 1.80775 8.27111 1.85199 8.29873C1.82798 8.36003 1.80491 8.37611 1.75645 8.4198C1.11519 8.99834 0.784164 8.93376 0 8.9098C0.0516797 5.98681 -0.00191238 2.94876 0.00377512 0.0150445Z" fill="#303030"/>
</svg>
