<svg width="24" height="24" viewBox="0 0 24 24" fill="none" xmlns="http://www.w3.org/2000/svg">
<path d="M7.12405 22.3563C7.0025 22.2699 6.835 22.2933 6.7331 22.4024C5.37135 23.8604 1.88626 24.8831 1.72662 22.8931C1.72662 21.334 1.37777 20.0202 0.99368 18.5736C0.52327 16.8019 0 14.8312 0 11.9669C0 5.13667 5.5802 0 12.1964 0C18.8126 0 24 5.38743 24 12.0332C24 18.6789 18.6475 23.9337 12.259 23.9337C9.9925 23.9337 8.89265 23.6133 7.12405 22.3563ZM12.382 5.92213C9.2421 5.75684 6.7919 7.94397 6.2516 11.3671C5.80415 14.2019 6.59745 17.6562 7.276 17.83C7.5638 17.9038 8.2564 17.372 8.7603 16.895C8.85505 16.8053 8.99825 16.7903 9.10935 16.8584C9.89485 17.3406 10.7842 17.703 11.7646 17.7546C14.9881 17.9243 17.8446 15.3918 18.0134 12.1557C18.1822 8.91956 15.6054 6.09183 12.382 5.92213Z" fill="#303030"/>
</svg>
