<svg width="5" height="7" viewBox="0 0 5 7" fill="none" xmlns="http://www.w3.org/2000/svg">
<path d="M2.19074 0C0.988759 1.22e-06 0.0110937 0.967014 0 2.16637L4.88281e-06 6.41651H0.736287L0.736284 3.69701C1.10435 4.08449 1.6099 4.33829 2.17528 4.37711C2.18009 4.37711 2.18535 4.37725 2.19017 4.37725C3.39901 4.37725 4.37915 3.39769 4.37915 2.18884C4.37915 1.03838 3.49153 0.0957373 2.36383 0.00744629C2.35697 0.00685913 2.32224 0.00423096 2.31888 0.00393677C2.27641 0.00146118 2.23365 0 2.19074 0ZM3.63236 2.25014C3.63237 3.04596 2.9873 3.69103 2.19162 3.69104C1.39594 3.69104 0.751021 3.04596 0.751021 2.25014C0.751021 2.23132 0.751315 2.21249 0.752188 2.19366C0.751315 2.17499 0.751021 2.15601 0.751021 2.13718C0.751019 1.34136 1.39594 0.696293 2.19162 0.696292C2.9873 0.69629 3.63236 1.34135 3.63236 2.13718C3.63236 2.15601 3.63207 2.17498 3.63134 2.19366C3.63207 2.21248 3.63236 2.23131 3.63236 2.25014Z" fill="white"/>
</svg>
