<svg width="39" height="28" viewBox="0 0 39 28" fill="none" xmlns="http://www.w3.org/2000/svg">
<path d="M18.0856 0.00869068C21.7775 -0.0608609 25.6852 0.280542 29.2475 1.26831C29.5257 1.34547 30.1164 1.44396 30.3154 1.59747C30.4929 1.78806 30.5491 2.17896 30.6339 2.4115C31.3198 4.29351 31.6142 6.15808 31.7535 8.15746C32.2355 8.17643 32.7604 8.16402 33.2458 8.16123C33.2095 5.86518 33.2426 3.51066 33.2327 1.20711L34.3186 1.20159L34.3173 8.16451C35.4372 8.14892 36.1826 8.11447 36.957 9.04574C37.2574 9.04733 37.9649 8.95185 38.15 9.18536C38.2238 9.46514 38.2023 10.1606 38.2022 10.4789L38.204 12.1564L38.2072 15.003C38.2076 15.3619 38.2453 16.6424 38.1464 16.8958C37.905 17.0983 37.2083 17.0312 36.8473 17.0325C36.1902 18.1766 35.5238 18.2442 34.3207 18.2336L34.3297 18.6021C34.4634 18.8094 35.1447 19.9438 35.1446 20.1115C35.1431 22.5324 35.1834 25.0177 35.1412 27.4359C34.5386 27.4508 33.8716 27.4364 33.2643 27.4343C33.2526 26.8992 33.27 26.2942 33.2726 25.7543L33.2778 22.6762C33.2766 20.7057 33.234 18.6607 33.2761 16.7001L32.6742 16.6914C32.6359 20.2682 32.6284 23.8453 32.6517 27.4223L27.0944 27.425L27.0975 21.6275C27.0964 21.0674 27.0295 20.6605 26.6356 20.2717C25.9343 19.5795 24.9783 19.9493 24.1196 19.8308C23.9308 19.768 23.731 19.6318 23.5603 19.5419C22.7071 19.0926 21.8833 18.4777 20.9543 18.2056C20.74 18.1428 20.4594 18.1507 20.2428 18.1514C19.3582 18.1503 18.4653 18.1325 17.5675 18.1675C16.6376 18.2038 15.7108 19.0127 14.8852 19.413C14.6665 19.5191 14.3147 19.7953 14.0866 19.8255C13.228 19.9324 12.2666 19.6161 11.5882 20.3391C11.017 20.948 11.1848 22.2935 11.1838 23.114L11.1889 27.4495L5.5564 27.4762C5.58714 23.9233 5.58648 20.3703 5.55438 16.8174L5.03086 16.817C5.0284 20.3482 4.9608 23.9522 5.02785 27.4755C4.37275 27.4719 3.7177 27.4724 3.06265 27.4769L3.05822 22.0513C3.0573 21.4746 3.02454 20.5542 3.07791 20.0015C3.09317 19.8437 3.75817 18.9215 3.90725 18.6731L3.91091 18.2836C2.61963 18.2846 1.96497 18.1836 1.23483 17.0078C1.0682 17.0002 0.876138 17.0086 0.709068 17.0108C0.129818 17.0187 0.0274978 16.9642 0.0175993 16.3972C-0.00618975 15.0391 0.0080291 13.6834 0.00830254 12.3262L0.00698993 10.4782C0.00688055 10.2536 -0.0390567 9.27904 0.106029 9.13948C0.274521 8.9775 0.871381 9.01884 1.14203 9.01796C2.26799 8.15385 2.53443 8.14701 3.91917 8.14898L3.91622 1.15795C4.29526 1.15625 4.67429 1.15735 5.05333 1.16123L5.04349 8.15385C5.51413 8.15089 5.98477 8.15292 6.45541 8.15997C6.48259 7.99312 6.50064 7.81178 6.50747 7.64257C6.59563 5.45518 7.22995 3.53685 8.00821 1.5208C8.53321 1.32442 9.77905 1.03944 10.3464 0.919785C12.8916 0.372691 15.4829 0.0676438 18.0856 0.00869068Z" fill="white"/>
</svg>
