<svg width="16" height="22" viewBox="0 0 16 22" fill="none" xmlns="http://www.w3.org/2000/svg">
<path d="M7.31006 2.11566C5.52545 4.00544 3.78312 5.89805 2.03798 7.82732C1.08788 8.88221 0.230808 10.0189 -0.708017 11.0907C-2.3855 13.0059 -4.12219 14.8985 -6.10415 16.4639C-8.11431 18.0491 -10.2767 19.6512 -12.3263 21.1855C-12.332 21.0699 -12.5744 15.6939 -12.5801 15.5726C-11.7117 14.1003 -10.8378 12.4333 -10.1921 10.834C-9.81153 9.88915 -9.47603 8.89631 -9.09261 7.95142C-8.35959 6.13215 -7.39821 4.46801 -5.98292 3.14234C-5.19352 2.40053 -4.28571 1.87591 -3.35252 1.37667C-0.552956 -0.123879 2.24379 -1.64981 5.04899 -3.13625C6.72083 -4.02473 7.9867 -5.57323 9.47811 -6.74376L15.3958 -7.01172C12.709 -3.9514 10.1096 -0.848765 7.31006 2.11566Z" fill="#303030"/>
</svg>
