<svg width="3" height="3" viewBox="0 0 3 3" fill="none" xmlns="http://www.w3.org/2000/svg">
<path d="M1.13383 0C1.11617 0 1.10187 0.0143054 1.10187 0.0321118C1.10187 0.625663 0.62201 1.10858 0.0321075 1.10858C0.0144482 1.10858 0 1.12289 0 1.14069C0 1.15835 0.0144482 1.1728 0.0321075 1.1728C0.62201 1.1728 1.10187 1.65557 1.10187 2.24912C1.10187 2.26693 1.11617 2.28123 1.13383 2.28123C1.15149 2.28123 1.16579 2.26707 1.16579 2.24912C1.16783 1.65776 1.64769 1.17659 2.23555 1.17659C2.25321 1.17659 2.26751 1.16214 2.26751 1.14449C2.26751 1.12668 2.25321 1.11223 2.23555 1.11223C1.64565 1.11223 1.16579 0.629448 1.16579 0.0353186V0.0322546C1.16594 0.0237927 1.16243 0.0154724 1.15645 0.00948608C1.15046 0.00350952 1.14229 0 1.13383 0Z" fill="white"/>
</svg>
