<svg width="12" height="10" viewBox="0 0 12 10" fill="none" xmlns="http://www.w3.org/2000/svg">
<path d="M11.2807 0L11.3024 0.00864005C11.312 0.0244447 11.3216 0.0402497 11.3312 0.0560544C11.3463 2.58311 11.3257 6.66323 11.3253 9.00621C7.58551 9.27462 3.80409 9.50452 0.071379 9.80984C-0.0278132 9.78627 0.00486267 9.46515 0.00621892 9.37661C0.0219908 8.37408 0.199561 7.38073 0.532077 6.43486C0.600251 6.24487 0.737145 5.8818 0.907338 5.78244C1.38477 5.50364 1.92273 5.25689 2.40928 4.98903C3.32677 4.48405 4.23847 3.97157 5.1518 3.46183L9.04047 1.24272C9.75201 0.834422 10.5529 0.34043 11.2807 0Z" fill="white"/>
</svg>
