<svg width="40" height="40" viewBox="0 0 40 40" fill="none" xmlns="http://www.w3.org/2000/svg">
<path d="M14.5068 32.9531L22.4531 34.3262L29.9121 25.0947L27.418 35.4844L39.4639 33.2295C38.1205 37.1671 34.3924 40 30 40H10C8.2613 40 6.6265 39.5558 5.20215 38.7754L17.9932 19.1719L14.5068 32.9531ZM30 0C35.5228 0 40 4.47715 40 10V26.7842L35.9521 27.6924L38.5977 16.7646L31.8271 12.3057L23.6963 22.3896L27.0566 9.12109L17.749 3L0.00585938 30.2627C0.00360727 30.1754 0 30.0879 0 30V10C0 4.47715 4.47715 0 10 0H30Z" fill="#303030"/>
</svg>
