<svg width="56" height="56" viewBox="0 0 56 56" fill="none" xmlns="http://www.w3.org/2000/svg">
<rect width="56" height="56" rx="8" fill="#303030"/>
<path d="M26.7016 15.1331C27.2626 15.1256 27.9452 15.1619 28.5129 15.1773C29.7813 15.2098 31.0495 15.2519 32.3172 15.3038L38.5635 15.4851L44.1855 15.6417C45.0408 15.6667 45.9007 15.6814 46.7547 15.7242C47.6265 15.768 47.7052 16.9461 47.8488 17.6192C47.9804 18.2443 48.1177 18.8683 48.2604 19.491L48.855 22.1971C49.0673 23.1332 49.3 24.0971 49.4444 25.0449C49.5354 25.6421 49.5716 26.2874 49.6209 26.8928C49.6884 27.6435 49.7454 28.395 49.7916 29.1472L48.911 29.1475L27.049 29.1412C26.9988 28.8275 26.961 28.4354 26.9307 28.1141C26.6772 25.4299 26.468 22.7386 26.2372 20.0524L26.0143 17.5433C25.9627 17.0087 25.892 16.4773 25.883 15.9399C25.8742 15.4137 26.2147 15.1745 26.7016 15.1331Z" fill="white"/>
<path d="M26.54 15.8262C27.404 15.8349 28.2976 15.8871 29.1667 15.9089L38.1613 16.1706L43.8131 16.3479C44.6234 16.3764 45.4413 16.3809 46.2502 16.4255C46.4097 16.429 46.5109 16.4751 46.642 16.5648C47.0168 16.8212 47.0713 17.4803 47.1561 17.9041C47.2466 18.3686 47.3445 18.8316 47.4498 19.293L48.3204 23.1502C48.4837 23.8803 48.7013 24.7458 48.8282 25.4734C48.0901 25.4396 47.1908 25.4651 46.4364 25.4687L42.3843 25.4781L27.3506 25.457C27.3421 25.1201 27.3148 24.773 27.2867 24.4368C27.0476 21.569 26.7453 18.6964 26.54 15.8262Z" fill="#303030"/>
<path d="M5.34717 24.5244C6.04523 23.981 6.74665 23.4419 7.45136 22.9071L17.7937 15.1123C19.2504 14.008 20.6804 12.8624 22.177 11.8118C22.4077 11.6498 23.1038 11.0521 23.303 10.9991C23.8933 10.842 24.7852 10.7197 25.3924 10.603C28.1177 10.0792 30.8731 9.71436 33.6531 9.76287C34.6023 9.78173 35.881 9.89581 36.8304 10.0124C39.5404 10.3453 42.263 10.8726 44.927 11.4728C45.2458 11.5446 45.9148 11.6624 46.182 11.7827C46.3938 11.8782 46.8816 12.5057 47.047 12.7196C47.6974 13.561 48.3369 14.6654 48.7003 15.6709C49.0921 16.7552 49.3665 18.084 49.6314 19.2222C49.9227 20.4475 50.1912 21.6781 50.4367 22.9135C50.5682 23.5729 50.7584 24.4436 50.8274 25.1044C50.9648 26.4202 51.0462 27.8248 51.1144 29.1489L50.0425 29.141C49.9919 27.8208 49.8471 26.4454 49.7014 25.1314C49.6171 24.371 49.3938 23.5994 49.25 22.8487C49.0158 21.5883 48.7517 20.3838 48.477 19.1343C48.3352 18.4734 48.1887 17.8137 48.0376 17.1549C47.9171 16.632 47.8622 16.0547 47.4382 15.7001C47.2771 15.5655 47.1047 15.4611 46.8888 15.4478C46.465 15.4132 46.0332 15.4027 45.6078 15.3886L43.4835 15.3205L35.9681 15.1178L29.9875 14.9315L27.955 14.8606C27.2954 14.8397 26.3119 14.6891 25.8731 15.2396C25.7483 15.3962 25.6411 15.6683 25.6405 15.8726C25.6541 16.3354 25.7058 16.8253 25.7461 17.2861L25.9854 20.0151L26.7767 29.1389L25.3274 29.1449L23.8536 12.3493C23.7033 12.1968 23.6116 12.106 23.4452 11.9741C22.6213 12.4929 21.7634 13.1089 20.9568 13.6598L14.7845 17.9491L8.29212 22.4843C7.34171 23.1561 6.31369 23.8383 5.39692 24.5393L5.34717 24.5244Z" fill="white"/>
<path d="M34.1992 11.3687C34.7767 11.3731 35.3743 11.4117 35.954 11.4274C36.7115 11.4478 37.4755 11.4539 38.2302 11.5141C38.4674 12.3895 38.682 13.2708 38.8736 14.1573C37.5311 14.0585 35.9083 14.0663 34.5433 14.0278C34.4415 13.207 34.2612 12.1653 34.1992 11.3687Z" fill="#303030"/>
<path d="M3.89844 34.4597C4.20846 34.5375 4.64877 34.7118 4.95865 34.8214C6.70192 35.4381 8.47478 36.0843 10.2118 36.7093C15.2511 38.5157 20.2697 40.3796 25.2666 42.3004C25.3034 40.9429 25.2775 39.5286 25.2656 38.1704L42.4902 38.1678L48.1277 38.1531C48.7287 38.1523 49.3296 38.1552 49.9306 38.1616C50.2478 38.1647 50.7412 38.1573 51.0427 38.2012C51.4786 38.5216 51.1528 39.133 51.0264 39.5712C50.7337 40.4998 50.4405 41.5208 50.1036 42.4263C49.8629 42.4904 49.592 42.5254 49.3461 42.5772C46.9961 43.072 44.6126 43.3518 42.2546 43.7918C41.8945 43.859 41.5015 44.0132 41.136 44.0053C40.7201 43.9963 40.2929 43.9595 39.8767 43.9359C38.9962 43.8884 38.116 43.8351 37.2361 43.7758C35.2854 43.6633 33.3339 43.5624 31.3819 43.473C30.1116 43.411 28.841 43.3569 27.5701 43.3107C26.7056 43.2848 25.7152 43.3654 24.912 43.0504C21.7785 41.8219 18.6758 40.519 15.5578 39.2516L6.57657 35.5957C6.18288 35.4338 4.04575 34.6021 3.89844 34.4597Z" fill="white"/>
<path d="M29.2324 40.0962C31.4042 40.059 33.6411 40.0843 35.8195 40.0814C35.8216 40.2875 35.8085 40.5061 35.7997 40.713C35.1928 40.7159 34.4951 40.6713 33.8781 40.6553C32.3387 40.6091 30.7989 40.5788 29.2589 40.5643L29.2324 40.0962Z" fill="#303030"/>
<path d="M34.9746 38.8424C35.2562 38.8371 35.5379 38.8339 35.8196 38.8328L35.8205 39.3628C34.8696 39.3834 33.9185 39.3979 32.9674 39.4061L29.9528 39.4606L29.1614 39.4629L29.1299 38.9535C29.314 38.9605 29.4975 38.9547 29.6816 38.9486C31.4456 38.8899 33.2097 38.8671 34.9746 38.8424Z" fill="#303030"/>
<path d="M29.3145 41.1772C31.4656 41.1847 33.651 41.297 35.8178 41.3145L35.8196 41.926C34.9274 41.9091 33.998 41.8413 33.1039 41.8001L29.3627 41.6562C29.3412 41.5159 29.3279 41.3218 29.3145 41.1772Z" fill="#303030"/>
<path d="M29.4434 42.2695C31.6182 42.3536 33.6366 42.4394 35.8143 42.5768L35.8164 43.1387L32.6791 42.9351C31.6117 42.8746 30.5467 42.8429 29.4791 42.7626L29.4434 42.2695Z" fill="#303030"/>
<path d="M47.8263 38.7887C48.0515 38.7766 48.286 38.777 48.5122 38.7742L48.5095 39.1575C47.0785 39.2349 45.6322 39.2217 44.1992 39.3264C43.5467 39.374 42.881 39.3821 42.2259 39.42L41.7156 39.4463C41.6856 39.2413 41.659 39.0357 41.6357 38.8297C43.6936 38.7979 45.7743 38.8437 47.8263 38.7887Z" fill="#303030"/>
<path d="M48.0158 39.8555C48.1678 39.8435 48.3583 39.8422 48.5139 39.8374C48.5156 39.9559 48.5266 40.0455 48.4874 40.1571C48.3086 40.1956 47.9328 40.2077 47.737 40.2204L46.5036 40.306C45.0906 40.4082 43.6782 40.5193 42.2665 40.6393C42.1538 40.6543 42.0042 40.6589 41.8879 40.6659L41.7744 40.0236C42.2306 40.0009 42.7471 40.0042 43.2112 39.9912C44.813 39.9564 46.4145 39.9111 48.0158 39.8555Z" fill="#303030"/>
<path d="M48.3865 41.8205C48.4412 41.8076 48.4186 41.8098 48.4779 41.8269C48.5272 41.9166 48.5206 42.0722 48.5252 42.1809L42.3618 43.1157C42.3294 43.1184 42.3202 43.1128 42.2871 43.1058C42.2382 43.0163 42.2052 42.6628 42.1875 42.5368C43.3071 42.3469 44.3303 42.2792 45.4511 42.1634C46.422 42.063 47.4147 41.9348 48.3865 41.8205Z" fill="#303030"/>
<path d="M48.0777 40.8673L48.2212 40.8556C48.317 40.8473 48.3726 40.8271 48.4529 40.8769C48.5112 40.9622 48.495 41.0651 48.4934 41.1723C47.4785 41.2354 46.3237 41.3769 45.3166 41.5001C44.2945 41.6237 43.2731 41.7534 42.2525 41.8893C42.2047 41.8937 42.1593 41.8967 42.1114 41.8998C41.9957 41.8083 41.9841 41.4618 41.9502 41.2767C43.9917 41.1515 46.0291 40.9606 48.0777 40.8673Z" fill="#303030"/>
<path d="M15.3174 20.0947L15.339 20.1034C15.3486 20.1192 15.3582 20.135 15.3678 20.1508C15.3829 22.6778 15.3623 26.758 15.3619 29.1009C11.6221 29.3693 7.84071 29.5992 4.108 29.9046C4.00881 29.881 4.04148 29.5599 4.04284 29.4713C4.05861 28.4688 4.23618 27.4755 4.5687 26.5296C4.63687 26.3396 4.77377 25.9765 4.94396 25.8772C5.42139 25.5984 5.95935 25.3516 6.4459 25.0838C7.36339 24.5788 8.27509 24.0663 9.18843 23.5566L13.0771 21.3374C13.7886 20.9291 14.5895 20.4352 15.3174 20.0947Z" fill="white"/>
<path d="M14.8679 20.835L14.8852 20.8509C14.9444 21.054 14.9038 22.5858 14.9033 22.9166L14.9041 28.6827C14.2123 28.7711 13.3604 28.8055 12.6386 28.8828C12.5793 28.7975 12.6044 26.8944 12.6044 26.5731L12.6016 22.071C13.3523 21.679 14.0924 21.2376 14.8679 20.835Z" fill="#303030"/>
<path d="M12.2518 22.2268C12.3329 22.3207 12.2917 24.4961 12.2888 24.8525L12.279 28.927C11.6529 28.965 11.0275 29.0138 10.4031 29.0735C10.3937 28.9082 10.4001 28.7099 10.4032 28.543C10.4355 26.7959 10.367 25.0417 10.4007 23.2957C10.6217 23.1549 10.9719 22.9748 11.209 22.8416C11.5593 22.6413 11.9069 22.4363 12.2518 22.2268Z" fill="#303030"/>
<path d="M10.0851 23.4575C10.1106 23.6364 10.0791 24.8019 10.0793 25.0463L10.0882 29.0909C9.579 29.1259 9.07002 29.1641 8.56126 29.2052C8.56241 27.5836 8.51237 25.949 8.55311 24.3319C9.02468 24.0114 9.57829 23.7287 10.0851 23.4575Z" fill="#303030"/>
<path d="M8.20967 24.4954L8.24232 24.503C8.28191 24.6241 8.25167 25.8747 8.25074 26.0656C8.2433 27.1188 8.24352 28.1719 8.25145 29.2252C7.82954 29.2591 7.39822 29.3056 6.97608 29.3465C6.90176 29.2429 6.9401 28.1497 6.93977 27.94C6.93151 27.0185 6.93239 26.0969 6.94229 25.1755C7.24826 24.984 7.8612 24.69 8.20967 24.4954Z" fill="#303030"/>
<path d="M6.63088 25.3733C6.6416 25.3875 6.65237 25.4018 6.66309 25.4161C6.67736 26.5623 6.68234 28.2685 6.66347 29.3612C6.29543 29.3965 5.92689 29.4273 5.55807 29.4535C5.48775 29.2859 5.54254 26.3601 5.54681 25.9191C5.87209 25.7817 6.30319 25.5401 6.63088 25.3733Z" fill="#303030"/>
<path d="M5.21965 26.0779C5.22636 26.0814 5.26822 26.1002 5.26898 26.126C5.28946 26.8224 5.28651 28.9281 5.25757 29.4756C4.97374 29.4886 4.69013 29.5059 4.40681 29.5272L4.37472 29.5007C4.24935 28.8954 4.68354 26.9182 4.9727 26.3339C5.05872 26.1601 5.04192 26.1477 5.21965 26.0779Z" fill="#303030"/>
<path d="M22.7023 15.042C22.8015 15.0389 22.9914 15.0301 23.0605 15.1086C23.1144 15.1699 23.1497 15.2582 23.1543 15.3388C23.1832 15.8372 23.2175 16.3413 23.2514 16.8389L23.507 20.8549L23.8651 25.9195C23.942 26.9521 24.053 28.0929 24.0947 29.1157L21.4445 29.1103L19.9941 29.1024C20.0193 25.3582 19.8653 21.568 21.0056 17.9435C21.2431 17.1887 21.904 15.2899 22.7023 15.042Z" fill="white"/>
<path d="M22.5753 15.77C22.6785 15.9031 23.433 27.3322 23.5312 28.5999C22.8402 28.5934 22.1493 28.5941 21.4584 28.6019L20.4892 28.6065C20.429 25.1953 20.5446 18.5897 22.5753 15.77Z" fill="#303030"/>
<path d="M25.5938 43.7009C26.0035 43.6723 26.6085 43.7047 27.0325 43.7187L29.464 43.8121L37.8151 44.2403L40.2644 44.3952C40.5171 44.4101 41.2441 44.4845 41.4667 44.4427C42.1775 44.3092 43.0696 44.0672 43.7622 43.8689C44.3606 44.0505 44.9895 44.1768 45.5897 44.3558C47.6599 44.973 49.7437 45.4853 51.8378 46.0124C51.9631 46.048 52.088 46.0851 52.2125 46.1235C51.6435 46.1575 50.8616 46.1426 50.279 46.1467L46.315 46.1566L35.733 46.1616L32.7196 46.1706C32.4822 46.1733 31.2671 46.2231 31.1065 46.164C30.0134 45.761 28.688 45.1123 27.6321 44.6266C26.9209 44.2995 26.2358 44.0452 25.5938 43.7009Z" fill="white"/>
<path d="M27.861 31.1009C28.5353 31.1033 29.2095 31.1006 29.8838 31.0928C30.2754 31.09 31.1054 31.03 31.4161 31.2309C31.5489 31.3171 31.6578 31.4353 31.733 31.5746C31.9441 31.9717 32.2775 32.9957 32.4583 33.4668C32.7014 34.1904 33.0502 34.9097 33.2348 35.6494C33.3561 36.1353 32.9393 36.536 32.4913 36.6109L29.5805 36.5936C29.0607 36.5917 28.521 36.6081 28.0139 36.5848C27.2188 36.5233 27.028 36.0027 27.0432 35.3113C27.0689 34.1473 27.0077 32.991 27.0632 31.8303C27.0838 31.3985 27.4642 31.1549 27.861 31.1009Z" fill="white"/>
<path d="M30.036 33.0703C30.798 32.9527 31.5118 33.4732 31.6328 34.2347C31.7538 34.9962 31.2366 35.7123 30.4757 35.8369C29.7098 35.9621 28.988 35.4409 28.8662 34.6744C28.7444 33.908 29.269 33.1886 30.036 33.0703Z" fill="#303030"/>
<path d="M48.8514 31.1036C49.1937 31.0978 49.6769 31.0497 49.9228 31.3022C50.186 31.5724 50.234 31.8009 50.2375 32.1515L50.2465 34.3223C50.2502 34.8319 50.2814 35.3889 50.2145 35.8904C50.1523 36.1124 49.825 36.4916 49.6011 36.5241C49.0927 36.5979 48.5219 36.5677 48.0106 36.5655C47.2125 36.5604 46.4143 36.5607 45.6162 36.5664C45.217 36.5675 44.7425 36.6099 44.4217 36.323C44.2665 36.1841 44.1332 35.9246 44.1378 35.7128C44.1437 35.4421 45.3431 32.0412 45.5125 31.6643C45.566 31.5453 45.6311 31.4466 45.7252 31.3556C45.846 31.239 45.991 31.1795 46.1539 31.1459C46.495 31.0754 46.8806 31.1072 47.2284 31.1072L48.8514 31.1036Z" fill="white"/>
<path d="M46.7824 33.078C47.5417 32.942 48.2669 33.4488 48.4002 34.2086C48.5334 34.9683 48.0239 35.6916 47.2637 35.8221C46.5074 35.9519 45.7885 35.4457 45.6559 34.6898C45.5234 33.934 46.0271 33.2133 46.7824 33.078Z" fill="#303030"/>
<path d="M3.83545 34.8911C4.05905 34.9159 5.54662 35.6162 5.83608 35.7447L14.4857 39.6749C15.0556 39.9297 15.6467 40.1481 16.2179 40.4005C19.365 41.7948 22.5008 43.2144 25.6249 44.6596C26.396 45.0181 27.2004 45.3453 27.9728 45.7063C28.3479 45.8817 28.7274 46.0345 29.0931 46.2333C28.7484 46.2612 25.8736 46.2633 25.7307 46.2137C25.2904 46.0609 24.8558 45.7783 24.4413 45.5623C23.6947 45.1733 22.9409 44.8019 22.198 44.405L15.5476 40.8927L7.59494 36.8215L5.04582 35.53C4.74036 35.3736 4.10084 35.0681 3.83545 34.8911Z" fill="white"/>
<path d="M14.4164 30.2559C14.7154 30.2401 15.0572 30.2423 15.3603 30.2383C15.3712 30.9459 15.3578 31.6993 15.3505 32.4092C15.1045 32.3569 14.684 32.3283 14.4224 32.3031C13.8581 32.2505 13.2942 32.195 12.7305 32.1366L6.00885 31.4389C5.37572 31.352 4.68985 31.3238 4.05817 31.2248C4.04029 31.0009 4.04827 30.6898 4.04757 30.4592L14.4164 30.2559Z" fill="white"/>
<path d="M17.896 18.2383C17.9226 18.2421 17.907 18.237 17.9369 18.2661C17.9539 18.9102 17.9373 19.5834 17.9384 20.2304L17.9374 24.7455L17.9345 38.2659C17.8332 38.2514 17.7185 38.226 17.6168 38.2061C17.5722 38.1979 17.5749 38.1932 17.533 38.1701C17.497 37.784 17.5208 36.9874 17.5209 36.5547L17.5255 33.1912L17.528 23.7221C17.5279 22.0499 17.5641 20.1364 17.4961 18.4827C17.6112 18.3998 17.7714 18.3118 17.896 18.2383Z" fill="white"/>
<path d="M17.0612 18.7319L17.0723 18.743C17.1018 18.8343 17.0874 19.8166 17.0873 19.9626L17.0877 23.0651L17.0822 38.0884L16.7678 38.0099L16.7077 37.9806C16.6842 37.945 16.6743 37.9329 16.6744 37.887C16.676 37.056 16.6681 36.2229 16.6643 35.3918L16.6621 28.7822C16.6431 25.5131 16.6482 22.2438 16.6776 18.9747C16.7839 18.8967 16.9456 18.8034 17.0612 18.7319Z" fill="white"/>
<path d="M16.2157 19.2297C16.2474 19.3274 16.2246 20.1712 16.2245 20.3345L16.2208 23.6021L16.2138 37.8311L15.8975 37.7368C15.8716 37.7278 15.864 37.7134 15.8413 37.691C15.8159 37.2598 15.8341 36.6278 15.8335 36.1842L15.8267 33.0589L15.8066 19.4457L16.2157 19.2297Z" fill="white"/>
<path d="M5.3968 24.5395C5.20984 24.6894 4.71409 25.0838 4.53271 25.1688C4.5911 25.0536 5.20885 24.5994 5.34705 24.5247L5.3968 24.5395Z" fill="white"/>
</svg>
